<svg width="92" height="94" viewBox="0 0 92 94" fill="none" xmlns="http://www.w3.org/2000/svg">
<g opacity="0.92">
<path d="M61.4623 0.0469772V0.026123H65.7735L67.3487 0.422352C68.3989 0.679587 69.3523 1.01669 70.209 1.43378C71.0657 1.85086 71.8948 2.33749 72.6962 2.89357C73.4977 3.44964 74.2245 4.01625 74.8767 4.59318C75.5234 5.16323 76.1038 5.768 76.6178 6.40749C77.1262 7.05397 77.9193 7.2208 78.9971 6.90799C80.0749 6.59517 81.2356 6.16068 82.4792 5.6046C83.7228 5.04853 84.9527 4.4229 86.1686 3.72773C87.3846 3.03256 88.1253 2.59118 88.3906 2.40349C88.6504 2.20892 88.7886 2.10465 88.8051 2.09068L88.8216 2.0594L88.9045 2.00727L88.9875 1.95513L89.0704 1.90299L89.1533 1.85086L89.1698 1.81958L89.1947 1.79872L89.2197 1.77787L89.2362 1.74659L89.3191 1.71531L89.402 1.69445L89.3855 1.85086L89.3605 2.00727L89.3191 2.16367L89.2776 2.32008L89.2362 2.42435L89.1947 2.52862L89.1533 2.68502C89.1257 2.7893 89.0981 2.92829 89.0704 3.10211C89.0428 3.27593 88.7802 3.97099 88.2827 5.18752C87.7853 6.40405 87.1635 7.63788 86.4173 8.88913C85.6712 10.1404 85.0024 11.0857 84.4111 11.7253C83.8141 12.3718 83.4189 12.8236 83.2254 13.0808C83.032 13.3449 82.7971 13.5882 82.5207 13.8107L82.1062 14.1548L82.0233 14.2069L81.9403 14.2591L81.9238 14.2903L81.8989 14.3112L81.874 14.3321L81.8574 14.3633L81.7745 14.4155L81.6916 14.4676L81.6751 14.4989L81.6502 14.5197L81.6253 14.5406L81.6087 14.5719L81.5922 14.6032L81.5673 14.624L81.5424 14.6449L81.5258 14.6761H81.9403L84.2617 14.0505C85.8094 13.6334 87.2879 13.1295 88.6973 12.5386L90.9358 11.6002L91.1845 11.4959L91.3089 11.4438L91.3918 11.3916L91.4747 11.3395L91.5576 11.2874L91.6405 11.2352L91.8063 11.2039L91.9721 11.1831V11.3916L91.9307 11.4125L91.8892 11.4438L91.8727 11.475L91.8478 11.4959L91.8229 11.5167L91.8063 11.548L91.7898 11.5793L91.7648 11.6002L91.74 11.621L91.7234 11.6523L91.7069 11.6836L91.6819 11.7044L91.6405 11.8087L91.599 11.913L91.5742 11.9338C91.5631 11.9547 91.2122 12.5455 90.5212 13.7064C89.8304 14.8743 89.4573 15.4651 89.402 15.479C89.3468 15.4999 89.2693 15.6042 89.1698 15.7918C89.0759 15.9864 88.49 16.7616 87.4122 18.1171C86.3344 19.4726 85.2789 20.6786 84.2452 21.7353C83.2062 22.7988 82.681 24.1057 82.67 25.6558C82.6534 27.1991 82.5898 28.9439 82.4792 30.8902C82.3687 32.8367 82.1615 34.9394 81.8574 37.1986C81.5535 39.4578 81.0837 42.0125 80.448 44.8625C79.8125 47.7125 79.0386 50.4931 78.1266 53.2042C77.2146 55.9152 76.2612 58.3481 75.2663 60.5031C74.2714 62.6581 73.3595 64.4828 72.5304 65.9773C71.7013 67.4718 70.8585 68.8795 70.0017 70.2003C69.145 71.5211 68.0618 73.0087 66.7518 74.6631C65.4364 76.3105 64.7179 77.2142 64.5963 77.3741C64.4692 77.5271 63.9275 78.0971 62.9712 79.0841C62.0206 80.0781 60.998 81.0722 59.9036 82.0663C58.8148 83.0534 57.8144 83.8771 56.9024 84.5375C55.9904 85.1978 54.8906 85.952 53.6027 86.8002C52.3204 87.6552 50.9331 88.4476 49.4407 89.1775C47.9484 89.9074 46.3732 90.5852 44.715 91.2108C43.0569 91.8364 41.454 92.3231 39.9064 92.6706C38.3589 93.0181 36.604 93.3136 34.6418 93.5569L31.6986 93.9218V93.974H26.3096V93.9218L25.6049 93.8697C25.1352 93.835 24.7483 93.8002 24.4442 93.7654C24.1403 93.7307 22.9934 93.5395 21.0036 93.192C19.0138 92.8444 17.4524 92.4968 16.3193 92.1492C15.1863 91.8017 13.5005 91.1413 11.262 90.1681C9.0235 89.1949 7.10835 88.2113 5.51653 87.2172C3.93027 86.2301 2.93538 85.6045 2.53187 85.3404C2.13392 85.0831 1.68622 84.7634 1.18878 84.3811L0.442612 83.8076L0.426113 83.7763L0.401158 83.7555L0.376286 83.7346L0.359705 83.7033L0.276798 83.6512L0.19389 83.5991L0.177392 83.5678L0.152437 83.5469L0.127565 83.5261L0.110983 83.4948L0.0944848 83.4635L0.0695297 83.4426H0.0280762V83.2341L0.110983 83.255L0.19389 83.2862L0.566973 83.3384C0.815694 83.3731 1.4928 83.4252 2.5982 83.4948C3.70368 83.5643 4.87814 83.5643 6.12175 83.4948C7.36536 83.4252 8.63666 83.2688 9.93548 83.0256C11.2344 82.7823 12.7682 82.3652 14.5368 81.7743C16.3056 81.1834 17.9305 80.4814 19.4119 79.668C20.8876 78.8479 21.9377 78.2361 22.5623 77.8329C23.1813 77.4367 24.1265 76.6998 25.3977 75.6223L27.3045 74.0062L27.3211 73.9749L27.346 73.954L27.3709 73.9332L27.3874 73.9019L27.404 73.8706L27.4289 73.8497L27.4538 73.8289L27.4703 73.7976L27.5533 73.7663L27.6362 73.7455L27.6527 73.6412L27.6776 73.5369L27.7026 73.5161L27.7191 73.4848L27.0558 73.4327C26.6137 73.3979 26.1853 73.3631 25.7707 73.3284C25.3562 73.2937 24.7068 73.1373 23.8224 72.8592C22.9381 72.5811 21.9847 72.164 20.9621 71.6079C19.9396 71.0519 18.9448 70.3914 17.9775 69.6268C17.0103 68.8622 16.311 68.226 15.8799 67.7186C15.4544 67.218 14.9016 66.5091 14.2218 65.5915C13.5475 64.667 12.9616 63.7181 12.4641 62.7449C11.9667 61.7718 11.4914 60.649 11.0382 59.377L10.35 57.4793L10.3086 57.3228L10.2671 57.1664L10.2422 57.0622L10.2257 56.9579L10.35 56.9788L10.4744 57.01L11.3864 57.1664C11.9944 57.2707 12.9478 57.3054 14.2467 57.2707C15.5456 57.236 16.4437 57.1664 16.9411 57.0622C17.4386 56.9579 17.7426 56.8884 17.8531 56.8536L18.0189 56.8015L18.2262 56.7494L18.4335 56.6972L18.45 56.6659L18.4749 56.6451L18.4999 56.6242L18.5164 56.593L18.3506 56.5408L18.1847 56.4887L18.0189 56.4365L17.8531 56.3844L17.6873 56.3323C17.5768 56.2976 17.3834 56.228 17.107 56.1237C16.8306 56.0195 16.0845 55.6371 14.8685 54.9768C13.6525 54.3164 12.6853 53.6734 11.9667 53.0477C11.2464 52.4203 10.5595 51.7341 9.91061 50.9936C9.26393 50.2429 8.55375 49.2766 7.7799 48.0949C7.00612 46.9132 6.31526 45.5403 5.70722 43.9762C5.09926 42.4121 4.64327 40.9176 4.33925 39.4926C4.03645 38.0759 3.83668 36.6275 3.7424 35.1653L3.59308 32.9756L3.67599 32.9965L3.7589 33.0278L3.84181 33.0799L3.92471 33.1321L4.00762 33.1842L4.09053 33.2363L5.37559 33.9662C6.23235 34.4529 7.2963 34.8699 8.56751 35.2175C9.83881 35.565 10.5987 35.7562 10.8475 35.791L11.2205 35.8431H11.9667L11.9502 35.8118L11.9253 35.791L11.9004 35.7701L11.8838 35.7388L11.8673 35.7075L11.8423 35.6867L11.8175 35.6658L11.8009 35.6346L11.718 35.5824L11.6351 35.5303L11.6186 35.499L11.5936 35.4781L11.5688 35.4573L11.5522 35.426L11.4693 35.3739L11.3864 35.3217L11.3699 35.2905C11.3533 35.2765 11.1156 35.0541 10.6568 34.6231C10.2035 34.1852 9.72821 33.6187 9.23077 32.9235C8.73333 32.2283 8.23588 31.4984 7.73844 30.7338C7.24008 29.9675 6.79621 29.1475 6.41193 28.2835C6.02508 27.4146 5.61602 26.3092 5.1849 24.9677C4.75934 23.633 4.436 22.2879 4.21489 20.9324C3.99386 19.5769 3.8695 18.2388 3.84181 16.918C3.8142 15.5972 3.84181 14.4676 3.92471 13.5292C4.00762 12.5907 4.17343 11.5306 4.42216 10.3489C4.67088 9.16722 5.0302 7.91597 5.49995 6.59517L6.20466 4.61403L6.24611 4.45763L6.28757 4.30122L6.31252 4.28037L6.32902 4.24908L6.3456 4.2178L6.37047 4.19695L6.39543 4.2178L6.41193 4.24908L6.42851 4.28037L6.45338 4.30122L6.47834 4.32207L6.49483 4.35336L6.51142 4.38464L6.53629 4.40549L6.57774 4.50976L6.6192 4.61403L6.64415 4.63489L6.66065 4.66617L7.7799 6.23023C8.52606 7.27293 9.41043 8.43732 10.4329 9.72329C11.4555 11.0093 12.022 11.6766 12.1325 11.7253C12.2431 11.7809 12.3812 11.9407 12.5471 12.2049C12.7129 12.4622 13.2656 13.0774 14.2052 14.0505C15.1449 15.0237 16.3746 16.1534 17.8946 17.4393C19.4146 18.7253 21.1003 19.994 22.9519 21.2452C24.8036 22.4964 26.7933 23.626 28.9212 24.634C31.0492 25.642 32.5415 26.3023 33.3982 26.6151C34.255 26.928 35.7196 27.3276 37.7923 27.8143C39.865 28.3009 41.4264 28.6137 42.4765 28.7527C43.5267 28.8917 44.2453 28.9717 44.6321 28.9925L45.2125 29.0134L45.196 28.857L45.171 28.7006L45.0052 27.3972C44.8947 26.5283 44.8394 25.3118 44.8394 23.7477C44.8394 22.1836 44.9361 20.7413 45.1296 19.4205C45.3231 18.0997 45.6132 16.7616 46.0001 15.406C46.387 14.0505 46.7657 12.9626 47.1359 12.1424C47.5118 11.3291 48.0037 10.4011 48.6117 9.35835C49.2197 8.31564 50.0073 7.23821 50.9745 6.12596C51.9418 5.0137 53.0472 4.02313 54.2908 3.15424C55.5344 2.28536 56.6814 1.6249 57.7315 1.1731C58.7816 0.721295 59.666 0.425792 60.3845 0.2868C61.103 0.147807 61.4623 0.0678313 61.4623 0.0469772V0.0469772Z" fill="#5DA8DC"/>
</g>
</svg>
