<svg width="92" height="94" viewBox="0 0 92 94" fill="none" xmlns="http://www.w3.org/2000/svg">
<path d="M74.579 24.0638L74.2036 23.5768L73.8034 24.0436C68.2252 30.5498 61.3273 35.1389 54.1249 38.3667L53.6705 38.5703L53.8723 39.0256C54.6783 40.8435 55.4784 42.742 56.2677 44.7187L56.4193 45.0981L56.8212 45.0253C59.9444 44.4593 63.2518 44.1239 66.7689 44.1025H67.162C71.6965 44.1025 76.5674 44.6459 81.7297 45.7654L82.3644 45.903L82.3352 45.2543C81.976 37.2737 79.1275 29.9653 74.579 24.0638ZM68.7643 18.707L69.0805 18.3202L68.6939 18.0037C62.4615 12.9007 54.5852 9.83279 45.9982 9.83279C43.3396 9.83279 40.7583 10.154 38.2608 10.7202L37.5009 10.8925L37.9741 11.5115C41.071 15.5628 45.609 22.1994 50.3076 31.4827L50.5213 31.9049L50.9546 31.7148C57.7163 28.7483 63.9976 24.5378 68.7643 18.707ZM30.5316 13.8361L30.2771 13.5289L29.921 13.7089C20.4592 18.4922 13.3044 27.3306 10.6944 38.0015L10.5478 38.6008L11.1645 38.6201C11.9675 38.6451 12.9286 38.6631 14.0456 38.6631H14.0487C14.2334 38.6651 14.421 38.6651 14.6075 38.6651H14.6085C14.6085 38.6651 14.6086 38.6651 14.6086 38.6651C21.2405 38.6671 32.202 37.8901 43.0974 34.5764L43.6713 34.4018L43.3962 33.8687C38.051 23.5091 33.0429 16.8668 30.5316 13.8361ZM9.60997 47.002V47.0021C9.61279 56.113 12.8568 64.4343 18.2088 70.9085L18.6451 71.4364L19.015 70.8599C20.8853 67.9446 24.0894 63.5729 28.8323 59.1589L28.5039 58.806L28.8323 59.1589C33.7566 54.576 40.4112 49.9769 48.8573 47.0907L49.3575 46.9197L49.159 46.4298C48.4761 44.7442 47.785 43.1201 47.0866 41.5598L46.9034 41.1506L46.4767 41.2882C33.784 45.3826 21.2483 45.9976 14.0541 46.0456H14.0467C12.472 46.0456 11.1642 46.0126 10.1449 45.9741L9.6541 45.9556L9.62679 46.4459C9.61636 46.6332 9.60997 46.8181 9.60997 47.002ZM24.2488 76.1891L24.0206 76.5731L24.3765 76.8429C30.4302 81.4335 37.8964 84.1718 45.9982 84.1718C50.5506 84.1718 54.8975 83.3016 58.9193 81.7368L59.3057 81.5865L59.2295 81.1789C57.3421 71.0869 54.8639 62.1195 52.1243 54.2729L51.9619 53.8077L51.4944 53.9633C43.3706 56.6668 37.1526 61.2086 32.653 65.6142C28.2805 69.8892 25.5336 74.027 24.2488 76.1891ZM65.8196 77.2585L65.9702 78.0115L66.5979 77.5692C74.3682 72.0938 79.939 63.6295 81.7287 53.8031L81.8141 53.3342L81.3499 53.2264C76.2158 52.0345 71.474 51.4857 67.1514 51.4857H67.1454H67.1394H67.0465C64.4389 51.4857 61.9679 51.6803 59.6139 52.0253L59.018 52.1126L59.2135 52.6823C61.72 59.9884 64.0032 68.1766 65.8196 77.2585ZM0.5 47.002C0.5 21.3094 20.8788 0.501987 45.9981 0.5H45.9982C71.1176 0.501978 91.4973 21.3094 91.5 47.0019C91.4973 72.69 71.1176 93.4998 45.9982 93.4998C20.8788 93.4998 0.5 72.69 0.5 47.002Z" fill="white" stroke="black"/>
</svg>
