<svg width="92" height="92" viewBox="0 0 92 92" fill="none" xmlns="http://www.w3.org/2000/svg">
<path fill-rule="evenodd" clip-rule="evenodd" d="M46 0C20.5925 0 0 21.1138 0 47.1644C0 67.9992 13.1765 85.6799 31.4584 91.9218C33.7598 92.3474 34.5899 90.8957 34.5899 89.6473C34.5899 88.5266 34.553 85.557 34.5392 81.6274C21.7409 84.4741 19.0383 75.3004 19.0383 75.3004C16.9537 69.8529 13.9328 68.4011 13.9328 68.4011C9.75897 65.474 14.2511 65.5402 14.2511 65.5402C18.8723 65.8713 21.2936 70.4014 21.2936 70.4014C25.3982 77.608 32.0672 75.5273 34.6776 74.3215C35.0973 71.2715 36.2964 69.1908 37.6062 68.0134C27.3952 66.8265 16.6585 62.7787 16.6585 44.7007C16.6585 39.5606 18.4526 35.3426 21.3812 32.0514C20.9154 30.855 19.3242 26.0553 21.8378 19.5675C21.8378 19.5675 25.698 18.2955 34.4839 24.3955C38.1642 23.3505 42.089 22.8256 45.9954 22.8067C49.911 22.8256 53.8404 23.3505 57.5069 24.3955C66.2974 18.2907 70.153 19.5675 70.153 19.5675C72.6665 26.0553 71.0892 30.855 70.6096 32.0514C73.5613 35.3426 75.3323 39.5559 75.3323 44.7007C75.3323 62.826 64.5863 66.8075 54.3385 67.9755C55.9757 69.432 57.4516 72.3071 57.4516 76.7048C57.4516 83.0129 57.3962 88.101 57.3962 89.6473C57.3962 90.9099 58.2172 92.3758 60.5647 91.9124C78.8374 85.661 92 67.9945 92 47.1644C92 21.1138 71.4075 0 46 0Z" fill="white"/>
</svg>
