<svg width="92" height="92" viewBox="0 0 92 92" fill="none" xmlns="http://www.w3.org/2000/svg">
<path d="M23.6182 0C10.5702 0 0 10.5589 0 23.5815C0 36.6092 10.5702 47.1681 23.6182 47.1681C36.6559 47.1681 47.2363 36.6092 47.2363 23.5815C47.2363 10.5589 36.6559 0 23.6182 0ZM23.6182 38.9046C15.1426 38.9046 8.27121 32.0439 8.27121 23.5866C8.27121 15.1242 15.1426 8.26858 23.6182 8.26858C32.0937 8.26858 38.9549 15.1242 38.9549 23.5866C38.9549 32.0439 32.0937 38.9046 23.6182 38.9046Z" transform="translate(22.3462 22.3012)" fill="white"/>
<path d="M5.50733 10.9976C8.54894 10.9976 11.0147 8.53567 11.0147 5.49878C11.0147 2.46189 8.54894 0 5.50733 0C2.46572 0 0 2.46189 0 5.49878C0 8.53567 2.46572 10.9976 5.50733 10.9976Z" transform="translate(65.0154 15.9354)" fill="white"/>
<path d="M89.5631 15.8434C87.167 9.67643 82.2881 4.79996 76.1115 2.41783C72.5404 1.07629 68.765 0.357063 64.9436 0.275449C60.0238 0.0612104 58.4656 0 45.9898 0C33.514 0 31.9149 -5.13064e-07 27.036 0.275449C23.2248 0.351962 19.4494 1.07119 15.8783 2.41783C9.69658 4.79996 4.81764 9.67643 2.4267 15.8434C1.08307 19.4141 0.362728 23.1785 0.286095 26.994C0.0664149 31.9011 0 33.4569 0 45.9184C0 58.3748 -3.80638e-08 59.9612 0.286095 64.8428C0.362728 68.6582 1.08307 72.4227 2.4267 75.9985C4.82274 82.1603 9.70169 87.0368 15.8834 89.424C19.4391 90.8115 23.2146 91.597 27.0462 91.7195C31.966 91.9337 33.5242 92 46 92C58.4758 92 60.0749 92 64.9538 91.7195C68.7701 91.6429 72.5455 90.9186 76.1217 89.5822C82.2983 87.1898 87.1772 82.3185 89.5733 76.1515C90.9169 72.5808 91.6373 68.8164 91.7139 65.0009C91.9336 60.0938 92 58.538 92 46.0765C92 33.615 92 32.0337 91.7139 27.1521C91.6475 23.2857 90.9323 19.4549 89.5631 15.8434ZM83.3405 64.4653C83.3047 67.4034 82.7734 70.316 81.7517 73.0756C80.1935 77.09 77.0209 80.2628 73.0053 81.8033C70.2721 82.8184 67.3907 83.3489 64.4736 83.3897C59.6202 83.6141 58.251 83.6702 45.8059 83.6702C33.3505 83.6702 32.0784 83.6702 27.1331 83.3897C24.2261 83.354 21.3345 82.8184 18.6064 81.8033C14.5755 80.2679 11.3825 77.0951 9.8243 73.0756C8.82297 70.3517 8.28143 67.4697 8.23545 64.5622C8.01577 59.7163 7.96468 58.3493 7.96468 45.9235C7.96468 33.4926 7.96468 32.2224 8.23545 27.2797C8.27121 24.3415 8.80253 21.434 9.8243 18.6744C11.3825 14.6498 14.5755 11.4821 18.6064 9.94167C21.3345 8.93169 24.2261 8.3961 27.1331 8.35529C31.9916 8.13595 33.3556 8.07474 45.8059 8.07474C58.2561 8.07474 59.5333 8.07474 64.4736 8.35529C67.3907 8.391 70.2721 8.92659 73.0053 9.94167C77.0209 11.4872 80.1935 14.66 81.7517 18.6744C82.753 21.3983 83.2945 24.2803 83.3405 27.1878C83.5602 32.0388 83.6164 33.4008 83.6164 45.8317C83.6164 58.2575 83.6164 59.5939 83.3967 64.4704H83.3405V64.4653Z" fill="white"/>
</svg>
