<svg width="92" height="92" viewBox="0 0 92 92" fill="none" xmlns="http://www.w3.org/2000/svg">
<path d="M45.9977 0C20.5907 0 0 20.5954 0 45.9977C0 65.4834 12.1233 82.142 29.2378 88.846C28.8326 85.2086 28.4735 79.6097 29.3943 75.6407C30.2323 72.0493 34.7906 52.7754 34.7906 52.7754C34.7906 52.7754 33.4139 50.0173 33.4139 45.9424C33.4139 39.5516 37.1205 34.7769 41.7387 34.7769C45.6662 34.7769 47.5586 37.7237 47.5586 41.2552C47.5586 45.2058 45.0446 51.104 43.7508 56.5739C42.6687 61.1507 46.0484 64.8849 50.5606 64.8849C58.7334 64.8849 65.023 56.2654 65.023 43.8198C65.023 32.8062 57.108 25.1077 45.8089 25.1077C32.7187 25.1077 25.034 34.9242 25.034 45.0677C25.034 49.0182 26.558 53.2588 28.4596 55.5656C28.8326 56.0215 28.8878 56.4174 28.7773 56.8824C28.4274 58.3328 27.6493 61.4592 27.5019 62.0992C27.2993 62.9418 26.8343 63.1214 25.9595 62.7162C20.2178 60.041 16.6264 51.6427 16.6264 44.8926C16.6264 30.3843 27.1658 17.0592 47.0199 17.0592C62.9786 17.0592 75.3782 28.4274 75.3782 43.6265C75.3782 59.4839 65.3821 72.2334 51.5091 72.2334C46.8449 72.2334 42.4662 69.8161 40.9651 66.9568C40.9651 66.9568 38.6583 75.7373 38.0966 77.8876C37.0606 81.8842 34.2565 86.8938 32.3825 89.9511C36.6876 91.2818 41.2598 92 46.0023 92C71.4046 92 92 71.4046 92 46.0023C92 20.6 71.4 0 45.9977 0Z" fill="white"/>
</svg>
