<?xml version="1.0" encoding="UTF-8"?>
<svg width="23px" height="19px" viewBox="0 0 23 19" version="1.1" xmlns="http://www.w3.org/2000/svg" xmlns:xlink="http://www.w3.org/1999/xlink">
    <!-- Generator: Sketch 46.2 (44496) - http://www.bohemiancoding.com/sketch -->
    <title>twitter</title>
    <desc>Created with Sketch.</desc>
    <defs></defs>
    <g id="icons" stroke="none" stroke-width="1" fill="none" fill-rule="evenodd">
        <g id="Artboard" transform="translate(-64.000000, -103.000000)" fill-rule="nonzero" fill="#FFFFFF">
            <path d="M71.1843393,121.565972 C79.8053594,121.565972 84.5198599,114.423848 84.5198599,108.230451 C84.5198599,108.027589 84.515728,107.825648 84.5066287,107.624618 C85.4217784,106.96304 86.2171875,106.137443 86.844561,105.197609 C86.0047666,105.57089 85.101039,105.822177 84.1530028,105.935486 C85.1206636,105.355234 85.8635616,104.437348 86.2140445,103.343124 C85.3084771,103.879971 84.30563,104.270155 83.2378531,104.480813 C82.3825737,103.569803 81.1649293,103 79.8166588,103 C77.2283597,103 75.1294487,105.098988 75.1294487,107.68629 C75.1294487,108.054083 75.1705683,108.411833 75.2509832,108.754987 C71.3555791,108.558979 67.9014217,106.693945 65.5897066,103.858039 C65.1871879,104.55068 64.9550888,105.355257 64.9550888,106.213756 C64.9550888,107.839837 65.7825412,109.275345 67.0408145,110.11514 C66.2718527,110.091382 65.5494992,109.880296 64.9181394,109.528947 C64.9174495,109.548611 64.9174495,109.567783 64.9174495,109.5888 C64.9174495,111.858659 66.5330283,113.753812 68.6776278,114.183253 C68.2837869,114.290621 67.8694168,114.348192 67.4417387,114.348192 C67.1401947,114.348192 66.8464085,114.318512 66.5608554,114.263668 C67.1575502,116.125934 68.8878256,117.481104 70.9392082,117.518973 C69.3350515,118.776326 67.3142556,119.525204 65.1179882,119.525204 C64.7401383,119.525204 64.3668648,119.503712 64,119.460325 C66.0743036,120.78989 68.5373427,121.565675 71.1845922,121.565675" id="twitter"></path>
        </g>
    </g>
</svg>