<svg xmlns="http://www.w3.org/2000/svg" width="4081.89" height="1729.13"><pattern width="3" height="3" patternUnits="userSpaceOnUse" id="a" viewBox="0 -3 3 3" overflow="visible"><path fill="none" d="M0 0h3v-3H0z"/><path fill-rule="evenodd" clip-rule="evenodd" fill="#0FB8AD" d="M3 0H0v-3h3z"/></pattern><g opacity=".2"><ellipse fill="#010101" cx="386.046" cy="299.381" rx="8.794" ry="12.448"/><ellipse fill="#010101" cx="462.04" cy="299.381" rx="8.795" ry="12.448"/><ellipse fill="#010101" cx="386.046" cy="391.546" rx="8.794" ry="12.448"/><ellipse fill="#010101" cx="462.04" cy="391.546" rx="8.795" ry="12.448"/><ellipse fill="#010101" cx="386.046" cy="476.076" rx="8.794" ry="12.448"/><ellipse fill="#010101" cx="462.04" cy="476.076" rx="8.795" ry="12.448"/><ellipse fill="#010101" cx="386.046" cy="560.605" rx="8.794" ry="12.448"/><ellipse fill="#010101" cx="462.04" cy="560.605" rx="8.795" ry="12.448"/><ellipse fill="#010101" cx="386.046" cy="645.723" rx="8.794" ry="12.448"/><ellipse fill="#010101" cx="462.04" cy="645.723" rx="8.795" ry="12.448"/><ellipse fill="#010101" cx="527.915" cy="298.109" rx="8.794" ry="12.448"/><ellipse fill="#010101" cx="603.909" cy="298.109" rx="8.795" ry="12.448"/><ellipse fill="#010101" cx="527.915" cy="390.274" rx="8.794" ry="12.448"/><ellipse fill="#010101" cx="603.909" cy="390.274" rx="8.795" ry="12.448"/><ellipse fill="#010101" cx="527.915" cy="474.803" rx="8.794" ry="12.448"/><ellipse fill="#010101" cx="603.909" cy="474.803" rx="8.795" ry="12.448"/><ellipse fill="#010101" cx="527.915" cy="559.333" rx="8.794" ry="12.448"/><ellipse fill="#010101" cx="603.909" cy="559.333" rx="8.795" ry="12.448"/><ellipse fill="#010101" cx="527.915" cy="644.45" rx="8.794" ry="12.448"/><ellipse fill="#010101" cx="603.909" cy="644.45" rx="8.795" ry="12.448"/><ellipse fill="#010101" cx="672.231" cy="299.381" rx="8.794" ry="12.448"/><ellipse fill="#010101" cx="748.224" cy="299.381" rx="8.795" ry="12.448"/><ellipse fill="#010101" cx="672.231" cy="391.546" rx="8.794" ry="12.448"/><ellipse fill="#010101" cx="748.224" cy="391.546" rx="8.795" ry="12.448"/><ellipse fill="#010101" cx="672.231" cy="476.076" rx="8.794" ry="12.448"/><ellipse fill="#010101" cx="748.224" cy="476.076" rx="8.795" ry="12.448"/><ellipse fill="#010101" cx="672.231" cy="560.605" rx="8.794" ry="12.448"/><ellipse fill="#010101" cx="748.224" cy="560.605" rx="8.795" ry="12.448"/><ellipse fill="#010101" cx="672.231" cy="645.723" rx="8.794" ry="12.448"/><ellipse fill="#010101" cx="748.224" cy="645.723" rx="8.795" ry="12.448"/><ellipse fill="#010101" cx="814.1" cy="298.109" rx="8.794" ry="12.448"/><ellipse fill="#010101" cx="890.094" cy="298.109" rx="8.795" ry="12.448"/><ellipse fill="#010101" cx="814.1" cy="390.274" rx="8.794" ry="12.448"/><ellipse fill="#010101" cx="890.094" cy="390.274" rx="8.795" ry="12.448"/><ellipse fill="#010101" cx="814.1" cy="474.803" rx="8.794" ry="12.448"/><ellipse fill="#010101" cx="890.094" cy="474.803" rx="8.795" ry="12.448"/><ellipse fill="#010101" cx="814.1" cy="559.333" rx="8.794" ry="12.448"/><ellipse fill="#010101" cx="890.094" cy="559.333" rx="8.795" ry="12.448"/><ellipse fill="#010101" cx="814.1" cy="644.45" rx="8.794" ry="12.448"/><ellipse fill="#010101" cx="890.094" cy="644.45" rx="8.795" ry="12.448"/><ellipse fill="#010101" cx="958.415" cy="299.381" rx="8.794" ry="12.448"/><ellipse fill="#010101" cx="1034.409" cy="299.381" rx="8.795" ry="12.448"/><ellipse fill="#010101" cx="958.415" cy="391.546" rx="8.794" ry="12.448"/><ellipse fill="#010101" cx="1034.409" cy="391.546" rx="8.795" ry="12.448"/><ellipse fill="#010101" cx="1034.409" cy="476.076" rx="8.795" ry="12.448"/><ellipse fill="#010101" cx="958.415" cy="560.605" rx="8.794" ry="12.448"/><ellipse fill="#010101" cx="1034.409" cy="560.605" rx="8.795" ry="12.448"/><ellipse fill="#010101" cx="958.415" cy="645.723" rx="8.794" ry="12.448"/><ellipse fill="#010101" cx="1034.409" cy="645.723" rx="8.795" ry="12.448"/><ellipse fill="#010101" cx="1100.285" cy="298.109" rx="8.794" ry="12.448"/><ellipse fill="#010101" cx="1176.278" cy="298.109" rx="8.795" ry="12.448"/><ellipse fill="#010101" cx="1100.285" cy="390.274" rx="8.794" ry="12.448"/><ellipse fill="#010101" cx="1176.278" cy="390.274" rx="8.795" ry="12.448"/><ellipse fill="#010101" cx="1100.285" cy="474.803" rx="8.794" ry="12.448"/><ellipse fill="#010101" cx="1176.278" cy="474.803" rx="8.795" ry="12.448"/><ellipse fill="#010101" cx="1100.285" cy="559.333" rx="8.794" ry="12.448"/><ellipse fill="#010101" cx="1176.278" cy="559.333" rx="8.795" ry="12.448"/><ellipse fill="#010101" cx="1100.285" cy="644.45" rx="8.794" ry="12.448"/><ellipse fill="#010101" cx="1176.278" cy="644.45" rx="8.795" ry="12.448"/><ellipse fill="#010101" cx="1244.6" cy="299.381" rx="8.794" ry="12.448"/><ellipse fill="#010101" cx="1320.594" cy="299.381" rx="8.795" ry="12.448"/><ellipse fill="#010101" cx="1244.6" cy="391.546" rx="8.794" ry="12.448"/><ellipse fill="#010101" cx="1320.594" cy="391.546" rx="8.795" ry="12.448"/><ellipse fill="#010101" cx="1244.6" cy="476.076" rx="8.794" ry="12.448"/><ellipse fill="#010101" cx="1320.594" cy="476.076" rx="8.795" ry="12.448"/><ellipse fill="#010101" cx="1244.6" cy="560.605" rx="8.794" ry="12.448"/><ellipse fill="#010101" cx="1320.594" cy="560.605" rx="8.795" ry="12.448"/><ellipse fill="#010101" cx="1244.6" cy="645.723" rx="8.794" ry="12.448"/><ellipse fill="#010101" cx="1320.594" cy="645.723" rx="8.795" ry="12.448"/><ellipse fill="#010101" cx="1386.469" cy="298.109" rx="8.794" ry="12.448"/><ellipse fill="#010101" cx="1462.463" cy="298.109" rx="8.795" ry="12.448"/><ellipse fill="#010101" cx="1386.469" cy="390.274" rx="8.794" ry="12.448"/><ellipse fill="#010101" cx="1462.463" cy="390.274" rx="8.795" ry="12.448"/><ellipse fill="#010101" cx="1386.469" cy="474.803" rx="8.794" ry="12.448"/><ellipse fill="#010101" cx="1462.463" cy="474.803" rx="8.795" ry="12.448"/><ellipse fill="#010101" cx="1386.469" cy="559.333" rx="8.794" ry="12.448"/><ellipse fill="#010101" cx="1462.463" cy="559.333" rx="8.795" ry="12.448"/><ellipse fill="#010101" cx="1386.469" cy="644.45" rx="8.794" ry="12.448"/><ellipse fill="#010101" cx="1462.463" cy="644.45" rx="8.795" ry="12.448"/><path fill="url(#a)" d="M941.884 470.905c0 13.72 10.801 24.839 24.158 24.839 13.363 0 24.164-11.119 24.164-24.839 0-13.785-10.801-24.905-24.164-24.905-13.356 0-24.158 11.12-24.158 24.905z"/></g><g opacity=".2"><ellipse fill="#010101" cx="2546.434" cy="1088.313" rx="8.794" ry="12.448"/><ellipse fill="#010101" cx="2622.428" cy="1088.313" rx="8.795" ry="12.448"/><ellipse fill="#010101" cx="2546.434" cy="1180.478" rx="8.794" ry="12.448"/><ellipse fill="#010101" cx="2622.428" cy="1180.478" rx="8.795" ry="12.448"/><ellipse fill="#010101" cx="2546.434" cy="1265.008" rx="8.794" ry="12.448"/><ellipse fill="#010101" cx="2622.428" cy="1265.008" rx="8.795" ry="12.448"/><ellipse fill="#010101" cx="2546.434" cy="1349.537" rx="8.794" ry="12.448"/><ellipse fill="#010101" cx="2622.428" cy="1349.537" rx="8.795" ry="12.448"/><ellipse fill="#010101" cx="2546.434" cy="1434.655" rx="8.794" ry="12.448"/><ellipse fill="#010101" cx="2622.428" cy="1434.655" rx="8.795" ry="12.448"/><ellipse fill="#010101" cx="2688.303" cy="1087.041" rx="8.794" ry="12.448"/><ellipse fill="#010101" cx="2764.297" cy="1087.041" rx="8.795" ry="12.448"/><ellipse fill="#010101" cx="2688.303" cy="1179.206" rx="8.794" ry="12.448"/><ellipse fill="#010101" cx="2764.297" cy="1179.206" rx="8.795" ry="12.448"/><ellipse fill="#010101" cx="2688.303" cy="1263.735" rx="8.794" ry="12.448"/><ellipse fill="#010101" cx="2764.297" cy="1263.735" rx="8.795" ry="12.448"/><ellipse fill="#010101" cx="2688.303" cy="1348.264" rx="8.794" ry="12.448"/><ellipse fill="#010101" cx="2764.297" cy="1348.264" rx="8.795" ry="12.448"/><ellipse fill="#010101" cx="2688.303" cy="1433.382" rx="8.794" ry="12.448"/><ellipse fill="#010101" cx="2764.297" cy="1433.382" rx="8.795" ry="12.448"/><ellipse fill="#010101" cx="2832.619" cy="1088.313" rx="8.794" ry="12.448"/><ellipse fill="#010101" cx="2908.613" cy="1088.313" rx="8.795" ry="12.448"/><ellipse fill="#010101" cx="2832.619" cy="1180.478" rx="8.794" ry="12.448"/><ellipse fill="#010101" cx="2908.613" cy="1180.478" rx="8.795" ry="12.448"/><ellipse fill="#010101" cx="2832.619" cy="1265.008" rx="8.794" ry="12.448"/><ellipse fill="#010101" cx="2908.613" cy="1265.008" rx="8.795" ry="12.448"/><ellipse fill="#010101" cx="2832.619" cy="1349.537" rx="8.794" ry="12.448"/><ellipse fill="#010101" cx="2908.613" cy="1349.537" rx="8.795" ry="12.448"/><ellipse fill="#010101" cx="2832.619" cy="1434.655" rx="8.794" ry="12.448"/><ellipse fill="#010101" cx="2908.613" cy="1434.655" rx="8.795" ry="12.448"/><ellipse fill="#010101" cx="2974.488" cy="1087.041" rx="8.794" ry="12.448"/><ellipse fill="#010101" cx="3050.482" cy="1087.041" rx="8.795" ry="12.448"/><ellipse fill="#010101" cx="2974.488" cy="1179.206" rx="8.794" ry="12.448"/><ellipse fill="#010101" cx="3050.482" cy="1179.206" rx="8.795" ry="12.448"/><ellipse fill="#010101" cx="2974.488" cy="1263.735" rx="8.794" ry="12.448"/><ellipse fill="#010101" cx="3050.482" cy="1263.735" rx="8.795" ry="12.448"/><ellipse fill="#010101" cx="2974.488" cy="1348.264" rx="8.794" ry="12.448"/><ellipse fill="#010101" cx="3050.482" cy="1348.264" rx="8.795" ry="12.448"/><ellipse fill="#010101" cx="2974.488" cy="1433.382" rx="8.794" ry="12.448"/><ellipse fill="#010101" cx="3050.482" cy="1433.382" rx="8.795" ry="12.448"/><ellipse fill="#010101" cx="3118.803" cy="1088.313" rx="8.794" ry="12.448"/><ellipse fill="#010101" cx="3194.797" cy="1088.313" rx="8.795" ry="12.448"/><ellipse fill="#010101" cx="3118.803" cy="1180.478" rx="8.794" ry="12.448"/><ellipse fill="#010101" cx="3194.797" cy="1180.478" rx="8.795" ry="12.448"/><ellipse fill="#010101" cx="3194.797" cy="1265.008" rx="8.795" ry="12.448"/><ellipse fill="#010101" cx="3118.803" cy="1349.537" rx="8.794" ry="12.448"/><ellipse fill="#010101" cx="3194.797" cy="1349.537" rx="8.795" ry="12.448"/><ellipse fill="#010101" cx="3118.803" cy="1434.655" rx="8.794" ry="12.448"/><ellipse fill="#010101" cx="3194.797" cy="1434.655" rx="8.795" ry="12.448"/><ellipse fill="#010101" cx="3260.673" cy="1087.041" rx="8.794" ry="12.448"/><ellipse fill="#010101" cx="3336.667" cy="1087.041" rx="8.795" ry="12.448"/><ellipse fill="#010101" cx="3260.673" cy="1179.206" rx="8.794" ry="12.448"/><ellipse fill="#010101" cx="3336.667" cy="1179.206" rx="8.795" ry="12.448"/><ellipse fill="#010101" cx="3260.673" cy="1263.735" rx="8.794" ry="12.448"/><ellipse fill="#010101" cx="3336.667" cy="1263.735" rx="8.795" ry="12.448"/><ellipse fill="#010101" cx="3260.673" cy="1348.264" rx="8.794" ry="12.448"/><ellipse fill="#010101" cx="3336.667" cy="1348.264" rx="8.795" ry="12.448"/><ellipse fill="#010101" cx="3260.673" cy="1433.382" rx="8.794" ry="12.448"/><ellipse fill="#010101" cx="3336.667" cy="1433.382" rx="8.795" ry="12.448"/><ellipse fill="#010101" cx="3404.988" cy="1088.313" rx="8.794" ry="12.448"/><ellipse fill="#010101" cx="3480.982" cy="1088.313" rx="8.795" ry="12.448"/><ellipse fill="#010101" cx="3404.988" cy="1180.478" rx="8.794" ry="12.448"/><ellipse fill="#010101" cx="3480.982" cy="1180.478" rx="8.795" ry="12.448"/><ellipse fill="#010101" cx="3404.988" cy="1265.008" rx="8.794" ry="12.448"/><ellipse fill="#010101" cx="3480.982" cy="1265.008" rx="8.795" ry="12.448"/><ellipse fill="#010101" cx="3404.988" cy="1349.537" rx="8.794" ry="12.448"/><ellipse fill="#010101" cx="3480.982" cy="1349.537" rx="8.795" ry="12.448"/><ellipse fill="#010101" cx="3404.988" cy="1434.655" rx="8.794" ry="12.448"/><ellipse fill="#010101" cx="3480.982" cy="1434.655" rx="8.795" ry="12.448"/><ellipse fill="#010101" cx="3546.858" cy="1087.041" rx="8.794" ry="12.448"/><ellipse fill="#010101" cx="3622.851" cy="1087.041" rx="8.795" ry="12.448"/><ellipse fill="#010101" cx="3546.858" cy="1179.206" rx="8.794" ry="12.448"/><ellipse fill="#010101" cx="3622.851" cy="1179.206" rx="8.795" ry="12.448"/><ellipse fill="#010101" cx="3546.858" cy="1263.735" rx="8.794" ry="12.448"/><ellipse fill="#010101" cx="3622.851" cy="1263.735" rx="8.795" ry="12.448"/><ellipse fill="#010101" cx="3546.858" cy="1348.264" rx="8.794" ry="12.448"/><ellipse fill="#010101" cx="3622.851" cy="1348.264" rx="8.795" ry="12.448"/><ellipse fill="#010101" cx="3546.858" cy="1433.382" rx="8.794" ry="12.448"/><ellipse fill="#010101" cx="3622.851" cy="1433.382" rx="8.795" ry="12.448"/><path fill="url(#a)" d="M3102.273 1259.837c0 13.72 10.801 24.839 24.157 24.839 13.363 0 24.164-11.119 24.164-24.839 0-13.785-10.801-24.905-24.164-24.905-13.356 0-24.157 11.12-24.157 24.905z"/></g><path opacity=".45" fill="url(#a)" d="M298.71 1294.276c9.167 0 16.605-6.42 16.605-14.305s-7.439-14.261-16.605-14.261c-9.167 0-16.58 6.376-16.58 14.261s7.414 14.305 16.58 14.305zm461.908 317.936c9.167 0 16.605-6.42 16.605-14.305s-7.439-14.261-16.605-14.261c-9.167 0-16.58 6.376-16.58 14.261s7.413 14.305 16.58 14.305zM2494.271 220.491c9.167 0 16.605-6.42 16.605-14.305s-7.438-14.261-16.605-14.261-16.58 6.376-16.58 14.261c0 7.885 7.413 14.305 16.58 14.305zm736.188 225.991c-9.018 0-16.332 6.248-16.332 13.961 0 7.757 7.314 14.049 16.332 14.049 8.966 0 16.229-6.292 16.229-14.049 0-7.713-7.263-13.961-16.229-13.961zm-1436.757 927.726c-2.605 0-4.733 1.809-4.733 4.051s2.129 4.051 4.733 4.051 4.709-1.809 4.709-4.051-2.105-4.051-4.709-4.051zm-1602.97 157.917c-2.605 0-4.733 1.809-4.733 4.051 0 2.241 2.129 4.051 4.733 4.051 2.605 0 4.709-1.809 4.709-4.051 0-2.241-2.104-4.051-4.709-4.051zm1861.019 58.4c9.167 0 16.605-6.42 16.605-14.305s-7.439-14.261-16.605-14.261-16.58 6.376-16.58 14.261 7.413 14.305 16.58 14.305zM3926.256 938.31c-9.018 0-16.332 6.248-16.332 13.961 0 7.757 7.314 14.049 16.332 14.049 8.966 0 16.229-6.292 16.229-14.049 0-7.712-7.263-13.961-16.229-13.961zM1536.23 56.56c-9.017 0-16.332 6.248-16.332 13.961 0 7.757 7.315 14.049 16.332 14.049 8.966 0 16.229-6.292 16.229-14.049.001-7.713-7.263-13.961-16.229-13.961zm2271.778 1467.654c-9.017 0-16.332 6.248-16.332 13.961 0 7.757 7.314 14.049 16.332 14.049 8.966 0 16.229-6.292 16.229-14.049.001-7.713-7.262-13.961-16.229-13.961zm-901.484-681.812c-9.017 0-16.332 6.248-16.332 13.961 0 7.757 7.315 14.049 16.332 14.049 8.966 0 16.229-6.292 16.229-14.049 0-7.713-7.263-13.961-16.229-13.961zM348.468 74.556c-9.017 0-16.332 6.248-16.332 13.961 0 7.757 7.314 14.049 16.332 14.049 8.966 0 16.229-6.292 16.229-14.049 0-7.713-7.263-13.961-16.229-13.961zm3020.184 1559.543c-2.604 0-4.733 1.809-4.733 4.051 0 2.241 2.129 4.051 4.733 4.051 2.605 0 4.709-1.809 4.709-4.051s-2.105-4.051-4.709-4.051zM1925.776 684.706c9.167 0 16.605-6.42 16.605-14.305s-7.439-14.261-16.605-14.261c-9.167 0-16.58 6.376-16.58 14.261s7.413 14.305 16.58 14.305zm-571.277 483.595c9.167 0 16.605-6.42 16.605-14.305s-7.439-14.261-16.605-14.261c-9.167 0-16.58 6.376-16.58 14.261s7.413 14.305 16.58 14.305zm-761.848-347.93c9.167 0 16.605-6.42 16.605-14.305s-7.439-14.261-16.605-14.261c-9.167 0-16.58 6.376-16.58 14.261 0 7.885 7.414 14.305 16.58 14.305zM3641.505 62.486c-9.017 0-16.332 6.248-16.332 13.961 0 7.757 7.314 14.049 16.332 14.049 8.966 0 16.229-6.292 16.229-14.049 0-7.713-7.263-13.961-16.229-13.961zm-557.604 695.788c-2.605 0-4.733 1.809-4.733 4.051s2.129 4.051 4.733 4.051 4.709-1.809 4.709-4.051-2.104-4.051-4.709-4.051zm-643.619 18.003c-2.605 0-4.733 1.809-4.733 4.051s2.129 4.051 4.733 4.051 4.709-1.809 4.709-4.051-2.104-4.051-4.709-4.051zm419.916-441.809c-2.605 0-4.733 1.809-4.733 4.051s2.129 4.051 4.733 4.051 4.709-1.809 4.709-4.051-2.104-4.051-4.709-4.051zm112.712-232.005c-2.604 0-4.733 1.809-4.733 4.051s2.129 4.051 4.733 4.051c2.605 0 4.709-1.809 4.709-4.051s-2.105-4.051-4.709-4.051zm-886.557-7.947c-2.605 0-4.733 1.809-4.733 4.051s2.129 4.051 4.733 4.051 4.709-1.809 4.709-4.051-2.104-4.051-4.709-4.051zM3598.05 730.389c-2.604 0-4.733 1.809-4.733 4.051s2.129 4.051 4.733 4.051c2.605 0 4.709-1.809 4.709-4.051s-2.104-4.051-4.709-4.051zm340.667-489.954c-2.605 0-4.733 1.809-4.733 4.051s2.129 4.051 4.733 4.051 4.709-1.809 4.709-4.051c-.001-2.242-2.105-4.051-4.709-4.051zM1360.498 502.434c-2.605 0-4.733 1.809-4.733 4.051s2.129 4.051 4.733 4.051c2.605 0 4.709-1.809 4.709-4.051s-2.104-4.051-4.709-4.051zm-388.632 493.85c-2.605 0-4.733 1.809-4.733 4.051s2.129 4.051 4.733 4.051c2.605 0 4.709-1.809 4.709-4.051s-2.104-4.051-4.709-4.051zM166.737 782.275c-2.605 0-4.733 1.809-4.733 4.051s2.129 4.051 4.733 4.051c2.605 0 4.709-1.809 4.709-4.051-.001-2.241-2.105-4.051-4.709-4.051zm1541.691-615.773c-2.605 0-4.733 1.809-4.733 4.051s2.129 4.051 4.733 4.051c2.605 0 4.709-1.809 4.709-4.051s-2.104-4.051-4.709-4.051z"/></svg>