<?xml version="1.0" encoding="utf-8"?>
<!-- Generator: Adobe Illustrator 17.0.0, SVG Export Plug-In . SVG Version: 6.00 Build 0)  -->
<!DOCTYPE svg PUBLIC "-//W3C//DTD SVG 1.1//EN" "http://www.w3.org/Graphics/SVG/1.1/DTD/svg11.dtd">
<svg version="1.1" id="Layer_1" xmlns="http://www.w3.org/2000/svg" xmlns:xlink="http://www.w3.org/1999/xlink" x="0px" y="0px"
	 width="571.471px" height="148.582px" viewBox="59.305 31.659 571.471 148.582"
	 enable-background="new 59.305 31.659 571.471 148.582" xml:space="preserve">
<ellipse opacity="0.05" fill="#010101" cx="60.803" cy="33.455" rx="1.498" ry="1.63"/>
<ellipse opacity="0.05" fill="#010101" cx="73.748" cy="33.455" rx="1.498" ry="1.63"/>
<ellipse opacity="0.05" fill="#010101" cx="60.803" cy="45.526" rx="1.498" ry="1.63"/>
<ellipse opacity="0.05" fill="#010101" cx="73.748" cy="45.526" rx="1.498" ry="1.63"/>
<ellipse opacity="0.05" fill="#010101" cx="60.803" cy="56.596" rx="1.498" ry="1.63"/>
<ellipse opacity="0.05" fill="#010101" cx="73.748" cy="56.596" rx="1.498" ry="1.63"/>
<ellipse opacity="0.05" fill="#010101" cx="84.97" cy="33.289" rx="1.498" ry="1.63"/>
<ellipse opacity="0.05" fill="#010101" cx="97.915" cy="33.289" rx="1.498" ry="1.63"/>
<ellipse opacity="0.05" fill="#010101" cx="84.97" cy="45.359" rx="1.498" ry="1.63"/>
<ellipse opacity="0.05" fill="#010101" cx="97.915" cy="45.359" rx="1.498" ry="1.63"/>
<ellipse opacity="0.05" fill="#010101" cx="84.97" cy="56.429" rx="1.498" ry="1.63"/>
<ellipse opacity="0.05" fill="#010101" cx="97.915" cy="56.429" rx="1.498" ry="1.63"/>
<ellipse opacity="0.05" fill="#010101" cx="109.553" cy="33.455" rx="1.498" ry="1.63"/>
<ellipse opacity="0.05" fill="#010101" cx="122.498" cy="33.455" rx="1.498" ry="1.63"/>
<ellipse opacity="0.05" fill="#010101" cx="109.553" cy="45.526" rx="1.498" ry="1.63"/>
<ellipse opacity="0.05" fill="#010101" cx="122.498" cy="45.526" rx="1.498" ry="1.63"/>
<ellipse opacity="0.05" fill="#010101" cx="109.553" cy="56.596" rx="1.498" ry="1.63"/>
<ellipse opacity="0.05" fill="#010101" cx="122.498" cy="56.596" rx="1.498" ry="1.63"/>
<ellipse opacity="0.05" fill="#010101" cx="133.72" cy="33.289" rx="1.498" ry="1.63"/>
<ellipse opacity="0.05" fill="#010101" cx="146.665" cy="33.289" rx="1.498" ry="1.63"/>
<ellipse opacity="0.05" fill="#010101" cx="133.72" cy="45.359" rx="1.498" ry="1.63"/>
<ellipse opacity="0.05" fill="#010101" cx="146.665" cy="45.359" rx="1.498" ry="1.63"/>
<ellipse opacity="0.05" fill="#010101" cx="133.72" cy="56.429" rx="1.498" ry="1.63"/>
<ellipse opacity="0.05" fill="#010101" cx="146.665" cy="56.429" rx="1.498" ry="1.63"/>
<ellipse opacity="0.05" fill="#010101" cx="158.303" cy="33.455" rx="1.498" ry="1.63"/>
<ellipse opacity="0.05" fill="#010101" cx="171.248" cy="33.455" rx="1.498" ry="1.63"/>
<ellipse opacity="0.05" fill="#010101" cx="158.303" cy="45.526" rx="1.498" ry="1.63"/>
<ellipse opacity="0.05" fill="#010101" cx="171.248" cy="45.526" rx="1.498" ry="1.63"/>
<ellipse opacity="0.05" fill="#010101" cx="158.303" cy="56.596" rx="1.498" ry="1.63"/>
<ellipse opacity="0.05" fill="#010101" cx="171.248" cy="56.596" rx="1.498" ry="1.63"/>
<ellipse opacity="0.05" fill="#010101" cx="182.47" cy="33.289" rx="1.498" ry="1.63"/>
<ellipse opacity="0.05" fill="#010101" cx="195.415" cy="33.289" rx="1.498" ry="1.63"/>
<ellipse opacity="0.05" fill="#010101" cx="182.47" cy="45.359" rx="1.498" ry="1.63"/>
<ellipse opacity="0.05" fill="#010101" cx="195.415" cy="45.359" rx="1.498" ry="1.63"/>
<ellipse opacity="0.05" fill="#010101" cx="182.47" cy="56.429" rx="1.498" ry="1.63"/>
<ellipse opacity="0.05" fill="#010101" cx="195.415" cy="56.429" rx="1.498" ry="1.63"/>
<ellipse opacity="0.05" fill="#010101" cx="207.053" cy="33.455" rx="1.498" ry="1.63"/>
<ellipse opacity="0.05" fill="#010101" cx="219.998" cy="33.455" rx="1.498" ry="1.63"/>
<ellipse opacity="0.05" fill="#010101" cx="207.053" cy="45.526" rx="1.498" ry="1.63"/>
<ellipse opacity="0.05" fill="#010101" cx="219.998" cy="45.526" rx="1.498" ry="1.63"/>
<ellipse opacity="0.05" fill="#010101" cx="207.053" cy="56.596" rx="1.498" ry="1.63"/>
<ellipse opacity="0.05" fill="#010101" cx="219.998" cy="56.596" rx="1.498" ry="1.63"/>
<ellipse opacity="0.05" fill="#010101" cx="231.22" cy="33.289" rx="1.498" ry="1.63"/>
<ellipse opacity="0.05" fill="#010101" cx="244.165" cy="33.289" rx="1.498" ry="1.63"/>
<ellipse opacity="0.05" fill="#010101" cx="231.22" cy="45.359" rx="1.498" ry="1.63"/>
<ellipse opacity="0.05" fill="#010101" cx="244.165" cy="45.359" rx="1.498" ry="1.63"/>
<ellipse opacity="0.05" fill="#010101" cx="231.22" cy="56.429" rx="1.498" ry="1.63"/>
<ellipse opacity="0.05" fill="#010101" cx="244.165" cy="56.429" rx="1.498" ry="1.63"/>
<ellipse opacity="0.05" fill="#010101" cx="445.917" cy="156.393" rx="1.498" ry="1.63"/>
<ellipse opacity="0.05" fill="#010101" cx="458.862" cy="156.393" rx="1.498" ry="1.63"/>
<ellipse opacity="0.05" fill="#010101" cx="445.917" cy="167.464" rx="1.498" ry="1.63"/>
<ellipse opacity="0.05" fill="#010101" cx="458.862" cy="167.464" rx="1.498" ry="1.63"/>
<ellipse opacity="0.05" fill="#010101" cx="445.917" cy="178.611" rx="1.498" ry="1.63"/>
<ellipse opacity="0.05" fill="#010101" cx="458.862" cy="178.611" rx="1.498" ry="1.63"/>
<ellipse opacity="0.05" fill="#010101" cx="470.083" cy="156.226" rx="1.498" ry="1.63"/>
<ellipse opacity="0.05" fill="#010101" cx="483.028" cy="156.226" rx="1.498" ry="1.63"/>
<ellipse opacity="0.05" fill="#010101" cx="470.083" cy="167.297" rx="1.498" ry="1.63"/>
<ellipse opacity="0.05" fill="#010101" cx="483.028" cy="167.297" rx="1.498" ry="1.63"/>
<ellipse opacity="0.05" fill="#010101" cx="470.083" cy="178.444" rx="1.498" ry="1.63"/>
<ellipse opacity="0.05" fill="#010101" cx="483.028" cy="178.444" rx="1.498" ry="1.63"/>
<ellipse opacity="0.05" fill="#010101" cx="494.667" cy="156.393" rx="1.498" ry="1.63"/>
<ellipse opacity="0.05" fill="#010101" cx="507.612" cy="156.393" rx="1.498" ry="1.63"/>
<ellipse opacity="0.05" fill="#010101" cx="494.667" cy="167.464" rx="1.498" ry="1.63"/>
<ellipse opacity="0.05" fill="#010101" cx="507.612" cy="167.464" rx="1.498" ry="1.63"/>
<ellipse opacity="0.05" fill="#010101" cx="494.667" cy="178.611" rx="1.498" ry="1.63"/>
<ellipse opacity="0.05" fill="#010101" cx="507.612" cy="178.611" rx="1.498" ry="1.63"/>
<ellipse opacity="0.05" fill="#010101" cx="518.833" cy="156.226" rx="1.498" ry="1.63"/>
<ellipse opacity="0.05" fill="#010101" cx="531.778" cy="156.226" rx="1.498" ry="1.63"/>
<ellipse opacity="0.05" fill="#010101" cx="518.833" cy="167.297" rx="1.498" ry="1.63"/>
<ellipse opacity="0.05" fill="#010101" cx="531.778" cy="167.297" rx="1.498" ry="1.63"/>
<ellipse opacity="0.05" fill="#010101" cx="518.833" cy="178.444" rx="1.498" ry="1.63"/>
<ellipse opacity="0.05" fill="#010101" cx="531.778" cy="178.444" rx="1.498" ry="1.63"/>
<ellipse opacity="0.05" fill="#010101" cx="543.417" cy="156.393" rx="1.498" ry="1.63"/>
<ellipse opacity="0.05" fill="#010101" cx="556.362" cy="156.393" rx="1.498" ry="1.63"/>
<ellipse opacity="0.05" fill="#010101" cx="543.417" cy="167.464" rx="1.498" ry="1.63"/>
<ellipse opacity="0.05" fill="#010101" cx="556.362" cy="167.464" rx="1.498" ry="1.63"/>
<ellipse opacity="0.05" fill="#010101" cx="543.417" cy="178.611" rx="1.498" ry="1.63"/>
<ellipse opacity="0.05" fill="#010101" cx="556.362" cy="178.611" rx="1.498" ry="1.63"/>
<ellipse opacity="0.05" fill="#010101" cx="567.583" cy="156.226" rx="1.498" ry="1.63"/>
<ellipse opacity="0.05" fill="#010101" cx="580.528" cy="156.226" rx="1.498" ry="1.63"/>
<ellipse opacity="0.05" fill="#010101" cx="567.583" cy="167.297" rx="1.498" ry="1.63"/>
<ellipse opacity="0.05" fill="#010101" cx="580.528" cy="167.297" rx="1.498" ry="1.63"/>
<ellipse opacity="0.05" fill="#010101" cx="567.583" cy="178.444" rx="1.498" ry="1.63"/>
<ellipse opacity="0.05" fill="#010101" cx="580.528" cy="178.444" rx="1.498" ry="1.63"/>
<ellipse opacity="0.05" fill="#010101" cx="592.167" cy="156.393" rx="1.498" ry="1.63"/>
<ellipse opacity="0.05" fill="#010101" cx="605.112" cy="156.393" rx="1.498" ry="1.63"/>
<ellipse opacity="0.05" fill="#010101" cx="592.167" cy="167.464" rx="1.498" ry="1.63"/>
<ellipse opacity="0.05" fill="#010101" cx="605.112" cy="167.464" rx="1.498" ry="1.63"/>
<ellipse opacity="0.05" fill="#010101" cx="592.167" cy="178.611" rx="1.498" ry="1.63"/>
<ellipse opacity="0.05" fill="#010101" cx="605.112" cy="178.611" rx="1.498" ry="1.63"/>
<ellipse opacity="0.05" fill="#010101" cx="616.333" cy="156.226" rx="1.498" ry="1.63"/>
<ellipse opacity="0.05" fill="#010101" cx="629.278" cy="156.226" rx="1.498" ry="1.63"/>
<ellipse opacity="0.05" fill="#010101" cx="616.333" cy="167.297" rx="1.498" ry="1.63"/>
<ellipse opacity="0.05" fill="#010101" cx="629.278" cy="167.297" rx="1.498" ry="1.63"/>
<ellipse opacity="0.05" fill="#010101" cx="616.333" cy="178.444" rx="1.498" ry="1.63"/>
<ellipse opacity="0.05" fill="#010101" cx="629.278" cy="178.444" rx="1.498" ry="1.63"/>
</svg>
