<svg width="92" height="58" viewBox="0 0 92 58" fill="none" xmlns="http://www.w3.org/2000/svg">
	<path fill-rule="evenodd" clip-rule="evenodd" d="M0 29C7.45946 12.3404 25.4865 0 46 0C67.1351 0 85.1622 11.7234 92 29C84.5405 45.6596 66.5135 58 46 58C24.8649 58 6.83784 46.2766 0 29ZM46 8.6383C57.1892 8.6383 66.5135 17.8936 66.5135 29C66.5135 40.1064 57.1892 49.3617 46 49.3617C34.8108 49.3617 25.4865 40.1064 25.4865 29C25.4865 17.8936 34.8108 8.6383 46 8.6383Z" fill="white"/>
	<path fill-rule="evenodd" clip-rule="evenodd" d="M11.8108 0C18.6486 0 23.6216 5.55319 23.6216 11.7234C23.6216 18.5106 18.027 23.4468 11.8108 23.4468C4.97297 23.4468 0 17.8936 0 11.7234C0 4.93617 5.59459 0 11.8108 0Z" transform="translate(34.1892 16.6596)" fill="white"/>
</svg>
