<svg width="114" height="92" viewBox="0 0 114 92" fill="none" xmlns="http://www.w3.org/2000/svg">
<rect width="4.75" height="69.561" transform="translate(14.25 17.9512)" fill="white"/>
<rect width="4.48781" height="99.75" transform="translate(114 17.9512) scale(-1 1) rotate(-90)" fill="white"/>
<rect width="4.48781" height="99.75" transform="translate(114 92) scale(-1 1) rotate(-90)" fill="white"/>
<rect width="4.75" height="69.561" transform="translate(109.25 17.9512)" fill="white"/>
<rect width="4.75" height="69.561" transform="translate(0 4.48781)" fill="white"/>
<rect width="4.48781" height="99.75" transform="translate(99.75 4.48779) scale(-1 1) rotate(-90)" fill="white"/>
<path d="M0 0V46.0833L39.056 23.0417L0 0Z" transform="translate(97.5833 79.7633) scale(1 -1) rotate(90)" fill="white"/>
<path d="M0 0V30.6667L24.6829 15.3333L0 0Z" transform="translate(65.6667 79.6829) scale(1 -1) rotate(90)" fill="white"/>
<ellipse cx="5.75" cy="6.73171" rx="5.75" ry="6.73171" transform="translate(49.5833 25)" fill="white"/>
</svg>
