<svg width="24" height="24" viewBox="0 0 24 24" fill="none" xmlns="http://www.w3.org/2000/svg">
<path d="M11.707 2.293C11.52 2.105 11.266 2 11 2H6C5.734 2 5.48 2.105 5.293 2.293L2.293 5.293C2.105 5.48 2 5.734 2 6V11C2 11.266 2.105 11.52 2.293 11.707L12.293 21.707C12.488 21.902 12.744 22 13 22C13.256 22 13.512 21.902 13.707 21.707L21.707 13.707C22.098 13.316 22.098 12.684 21.707 12.293L11.707 2.293ZM8.353 10C7.443 10 6.706 9.263 6.706 8.353C6.706 7.443 7.443 6.706 8.353 6.706C9.263 6.706 10 7.442 10 8.353C10 9.264 9.263 10 8.353 10Z" fill="white"/>
</svg>
