<?xml version="1.0" encoding="utf-8"?>
<!-- Generator: Adobe Illustrator 17.0.0, SVG Export Plug-In . SVG Version: 6.00 Build 0)  -->
<!DOCTYPE svg PUBLIC "-//W3C//DTD SVG 1.1//EN" "http://www.w3.org/Graphics/SVG/1.1/DTD/svg11.dtd">
<svg version="1.1" id="Layer_1" xmlns="http://www.w3.org/2000/svg" xmlns:xlink="http://www.w3.org/1999/xlink" x="0px" y="0px"
	 width="684px" height="213.333px" viewBox="0 0 684 213.333" enable-background="new 0 0 684 213.333" xml:space="preserve">
<circle opacity="0.5" fill="none" stroke="#76CBC7" stroke-width="2" stroke-miterlimit="10" cx="476.398" cy="215.064" r="6.037"/>
<circle opacity="0.5" fill="none" stroke="#76CBC7" stroke-width="2" stroke-miterlimit="10" cx="348" cy="0.667" r="6.037"/>
<circle opacity="0.5" fill="none" stroke="#76CBC7" stroke-width="2" stroke-miterlimit="10" cx="494" cy="100" r="6.037"/>
<circle opacity="0.5" fill="none" stroke="#76CBC7" stroke-width="2" stroke-miterlimit="10" cx="368" cy="180" r="6.037"/>
<circle opacity="0.5" fill="none" stroke="#76CBC7" stroke-width="2" stroke-miterlimit="10" cx="85.333" cy="102" r="6.037"/>
<circle opacity="0.5" fill="none" stroke="#76CBC7" stroke-width="2" stroke-miterlimit="10" cx="300.667" cy="100" r="6.037"/>
<circle opacity="0.5" fill="none" stroke="#76CBC7" stroke-width="2" stroke-miterlimit="10" cx="140.667" cy="176.833" r="6.037"/>
<circle opacity="0.5" fill="none" stroke="#76CBC7" stroke-width="2" stroke-miterlimit="10" cx="0" cy="155" r="6.037"/>
<circle opacity="0.5" fill="none" stroke="#76CBC7" stroke-width="2" stroke-miterlimit="10" cx="626.667" cy="56" r="6.037"/>
<circle opacity="0.5" fill="none" stroke="#76CBC7" stroke-width="2" stroke-miterlimit="10" cx="616.935" cy="186.398" r="6.037"/>
<circle opacity="0.5" fill="none" stroke="#76CBC7" stroke-width="2" stroke-miterlimit="10" cx="229.333" cy="20.667" r="6.037"/>
<circle opacity="0.5" fill="none" stroke="#76CBC7" stroke-width="2" stroke-miterlimit="10" cx="2" cy="17.5" r="6.037"/>
<circle opacity="0.5" fill="none" stroke="#76CBC7" stroke-width="2" stroke-miterlimit="10" cx="681.731" cy="138.564" r="6.037"/>
<circle opacity="0.5" fill="none" stroke="#76CBC7" stroke-width="2" stroke-miterlimit="10" cx="683.731" cy="1.064" r="6.037"/>
<circle opacity="0.5" fill="none" stroke="#76CBC7" stroke-width="2" stroke-miterlimit="10" cx="478.269" cy="27.064" r="6.037"/>
<g opacity="0.2">
	<g>
		<ellipse fill="#010101" cx="60.803" cy="33.455" rx="1.498" ry="1.63"/>
		<ellipse fill="#010101" cx="73.748" cy="33.455" rx="1.498" ry="1.63"/>
		<ellipse fill="#010101" cx="60.803" cy="45.526" rx="1.498" ry="1.63"/>
		<ellipse fill="#010101" cx="73.748" cy="45.526" rx="1.498" ry="1.63"/>
		<ellipse fill="#010101" cx="60.803" cy="56.596" rx="1.498" ry="1.63"/>
		<ellipse fill="#010101" cx="73.748" cy="56.596" rx="1.498" ry="1.63"/>
		<ellipse fill="#010101" cx="60.803" cy="67.667" rx="1.498" ry="1.63"/>
		<ellipse fill="#010101" cx="73.748" cy="67.667" rx="1.498" ry="1.63"/>
		<ellipse fill="#010101" cx="60.803" cy="78.814" rx="1.498" ry="1.63"/>
		<ellipse fill="#010101" cx="73.748" cy="78.814" rx="1.498" ry="1.63"/>
		<ellipse fill="#010101" cx="84.97" cy="33.289" rx="1.498" ry="1.63"/>
		<ellipse fill="#010101" cx="97.915" cy="33.289" rx="1.498" ry="1.63"/>
		<ellipse fill="#010101" cx="84.97" cy="45.359" rx="1.498" ry="1.63"/>
		<ellipse fill="#010101" cx="97.915" cy="45.359" rx="1.498" ry="1.63"/>
		<ellipse fill="#010101" cx="84.97" cy="56.429" rx="1.498" ry="1.63"/>
		<ellipse fill="#010101" cx="97.915" cy="56.429" rx="1.498" ry="1.63"/>
		<ellipse fill="#010101" cx="84.97" cy="67.5" rx="1.498" ry="1.63"/>
		<ellipse fill="#010101" cx="97.915" cy="67.5" rx="1.498" ry="1.63"/>
		<ellipse fill="#010101" cx="84.97" cy="78.647" rx="1.498" ry="1.63"/>
		<ellipse fill="#010101" cx="97.915" cy="78.647" rx="1.498" ry="1.63"/>
		<ellipse fill="#010101" cx="109.553" cy="33.455" rx="1.498" ry="1.63"/>
		<ellipse fill="#010101" cx="122.498" cy="33.455" rx="1.498" ry="1.63"/>
		<ellipse fill="#010101" cx="109.553" cy="45.526" rx="1.498" ry="1.63"/>
		<ellipse fill="#010101" cx="122.498" cy="45.526" rx="1.498" ry="1.63"/>
		<ellipse fill="#010101" cx="109.553" cy="56.596" rx="1.498" ry="1.63"/>
		<ellipse fill="#010101" cx="122.498" cy="56.596" rx="1.498" ry="1.63"/>
		<ellipse fill="#010101" cx="109.553" cy="67.667" rx="1.498" ry="1.63"/>
		<ellipse fill="#010101" cx="122.498" cy="67.667" rx="1.498" ry="1.63"/>
		<ellipse fill="#010101" cx="109.553" cy="78.814" rx="1.498" ry="1.63"/>
		<ellipse fill="#010101" cx="122.498" cy="78.814" rx="1.498" ry="1.63"/>
		<ellipse fill="#010101" cx="133.72" cy="33.289" rx="1.498" ry="1.63"/>
		<ellipse fill="#010101" cx="146.665" cy="33.289" rx="1.498" ry="1.63"/>
		<ellipse fill="#010101" cx="133.72" cy="45.359" rx="1.498" ry="1.63"/>
		<ellipse fill="#010101" cx="146.665" cy="45.359" rx="1.498" ry="1.63"/>
		<ellipse fill="#010101" cx="133.72" cy="56.429" rx="1.498" ry="1.63"/>
		<ellipse fill="#010101" cx="146.665" cy="56.429" rx="1.498" ry="1.63"/>
		<ellipse fill="#010101" cx="133.72" cy="67.5" rx="1.498" ry="1.63"/>
		<ellipse fill="#010101" cx="146.665" cy="67.5" rx="1.498" ry="1.63"/>
		<ellipse fill="#010101" cx="133.72" cy="78.647" rx="1.498" ry="1.63"/>
		<ellipse fill="#010101" cx="146.665" cy="78.647" rx="1.498" ry="1.63"/>
		<ellipse fill="#010101" cx="158.303" cy="33.455" rx="1.498" ry="1.63"/>
		<ellipse fill="#010101" cx="171.248" cy="33.455" rx="1.498" ry="1.63"/>
		<ellipse fill="#010101" cx="158.303" cy="45.526" rx="1.498" ry="1.63"/>
		<ellipse fill="#010101" cx="171.248" cy="45.526" rx="1.498" ry="1.63"/>
		<ellipse fill="#010101" cx="171.248" cy="56.596" rx="1.498" ry="1.63"/>
		<ellipse fill="#010101" cx="158.303" cy="67.667" rx="1.498" ry="1.63"/>
		<ellipse fill="#010101" cx="171.248" cy="67.667" rx="1.498" ry="1.63"/>
		<ellipse fill="#010101" cx="158.303" cy="78.814" rx="1.498" ry="1.63"/>
		<ellipse fill="#010101" cx="171.248" cy="78.814" rx="1.498" ry="1.63"/>
		<ellipse fill="#010101" cx="182.47" cy="33.289" rx="1.498" ry="1.63"/>
		<ellipse fill="#010101" cx="195.415" cy="33.289" rx="1.498" ry="1.63"/>
		<ellipse fill="#010101" cx="182.47" cy="45.359" rx="1.498" ry="1.63"/>
		<ellipse fill="#010101" cx="195.415" cy="45.359" rx="1.498" ry="1.63"/>
		<ellipse fill="#010101" cx="182.47" cy="56.429" rx="1.498" ry="1.63"/>
		<ellipse fill="#010101" cx="195.415" cy="56.429" rx="1.498" ry="1.63"/>
		<ellipse fill="#010101" cx="182.47" cy="67.5" rx="1.498" ry="1.63"/>
		<ellipse fill="#010101" cx="195.415" cy="67.5" rx="1.498" ry="1.63"/>
		<ellipse fill="#010101" cx="182.47" cy="78.647" rx="1.498" ry="1.63"/>
		<ellipse fill="#010101" cx="195.415" cy="78.647" rx="1.498" ry="1.63"/>
		<ellipse fill="#010101" cx="207.053" cy="33.455" rx="1.498" ry="1.63"/>
		<ellipse fill="#010101" cx="219.998" cy="33.455" rx="1.498" ry="1.63"/>
		<ellipse fill="#010101" cx="207.053" cy="45.526" rx="1.498" ry="1.63"/>
		<ellipse fill="#010101" cx="219.998" cy="45.526" rx="1.498" ry="1.63"/>
		<ellipse fill="#010101" cx="207.053" cy="56.596" rx="1.498" ry="1.63"/>
		<ellipse fill="#010101" cx="219.998" cy="56.596" rx="1.498" ry="1.63"/>
		<ellipse fill="#010101" cx="207.053" cy="67.667" rx="1.498" ry="1.63"/>
		<ellipse fill="#010101" cx="219.998" cy="67.667" rx="1.498" ry="1.63"/>
		<ellipse fill="#010101" cx="207.053" cy="78.814" rx="1.498" ry="1.63"/>
		<ellipse fill="#010101" cx="219.998" cy="78.814" rx="1.498" ry="1.63"/>
		<ellipse fill="#010101" cx="231.22" cy="33.289" rx="1.498" ry="1.63"/>
		<ellipse fill="#010101" cx="244.165" cy="33.289" rx="1.498" ry="1.63"/>
		<ellipse fill="#010101" cx="231.22" cy="45.359" rx="1.498" ry="1.63"/>
		<ellipse fill="#010101" cx="244.165" cy="45.359" rx="1.498" ry="1.63"/>
		<ellipse fill="#010101" cx="231.22" cy="56.429" rx="1.498" ry="1.63"/>
		<ellipse fill="#010101" cx="244.165" cy="56.429" rx="1.498" ry="1.63"/>
		<ellipse fill="#010101" cx="231.22" cy="67.5" rx="1.498" ry="1.63"/>
		<ellipse fill="#010101" cx="244.165" cy="67.5" rx="1.498" ry="1.63"/>
		<ellipse fill="#010101" cx="231.22" cy="78.647" rx="1.498" ry="1.63"/>
		<ellipse fill="#010101" cx="244.165" cy="78.647" rx="1.498" ry="1.63"/>
		<circle fill="none" stroke="#76CBC7" stroke-width="2" stroke-miterlimit="10" cx="158.769" cy="56.731" r="3.68"/>
	</g>
	<g>
		<ellipse fill="#010101" cx="448.138" cy="131.896" rx="1.498" ry="1.63"/>
		<ellipse fill="#010101" cx="461.083" cy="131.896" rx="1.498" ry="1.63"/>
		<ellipse fill="#010101" cx="448.138" cy="143.966" rx="1.498" ry="1.63"/>
		<ellipse fill="#010101" cx="461.083" cy="143.966" rx="1.498" ry="1.63"/>
		<ellipse fill="#010101" cx="448.138" cy="155.036" rx="1.498" ry="1.63"/>
		<ellipse fill="#010101" cx="461.083" cy="155.036" rx="1.498" ry="1.63"/>
		<ellipse fill="#010101" cx="448.138" cy="166.107" rx="1.498" ry="1.63"/>
		<ellipse fill="#010101" cx="461.083" cy="166.107" rx="1.498" ry="1.63"/>
		<ellipse fill="#010101" cx="448.138" cy="177.254" rx="1.498" ry="1.63"/>
		<ellipse fill="#010101" cx="461.083" cy="177.254" rx="1.498" ry="1.63"/>
		<ellipse fill="#010101" cx="472.305" cy="131.729" rx="1.498" ry="1.63"/>
		<ellipse fill="#010101" cx="485.25" cy="131.729" rx="1.498" ry="1.63"/>
		<ellipse fill="#010101" cx="472.305" cy="143.799" rx="1.498" ry="1.63"/>
		<ellipse fill="#010101" cx="485.25" cy="143.799" rx="1.498" ry="1.63"/>
		<ellipse fill="#010101" cx="472.305" cy="154.87" rx="1.498" ry="1.63"/>
		<ellipse fill="#010101" cx="485.25" cy="154.87" rx="1.498" ry="1.63"/>
		<ellipse fill="#010101" cx="472.305" cy="165.94" rx="1.498" ry="1.63"/>
		<ellipse fill="#010101" cx="485.25" cy="165.94" rx="1.498" ry="1.63"/>
		<ellipse fill="#010101" cx="472.305" cy="177.088" rx="1.498" ry="1.63"/>
		<ellipse fill="#010101" cx="485.25" cy="177.088" rx="1.498" ry="1.63"/>
		<ellipse fill="#010101" cx="496.888" cy="131.896" rx="1.498" ry="1.63"/>
		<ellipse fill="#010101" cx="509.833" cy="131.896" rx="1.498" ry="1.63"/>
		<ellipse fill="#010101" cx="496.888" cy="143.966" rx="1.498" ry="1.63"/>
		<ellipse fill="#010101" cx="509.833" cy="143.966" rx="1.498" ry="1.63"/>
		<ellipse fill="#010101" cx="496.888" cy="155.036" rx="1.498" ry="1.63"/>
		<ellipse fill="#010101" cx="509.833" cy="155.036" rx="1.498" ry="1.63"/>
		<ellipse fill="#010101" cx="496.888" cy="166.107" rx="1.498" ry="1.63"/>
		<ellipse fill="#010101" cx="509.833" cy="166.107" rx="1.498" ry="1.63"/>
		<ellipse fill="#010101" cx="496.888" cy="177.254" rx="1.498" ry="1.63"/>
		<ellipse fill="#010101" cx="509.833" cy="177.254" rx="1.498" ry="1.63"/>
		<ellipse fill="#010101" cx="521.055" cy="131.729" rx="1.498" ry="1.63"/>
		<ellipse fill="#010101" cx="534" cy="131.729" rx="1.498" ry="1.63"/>
		<ellipse fill="#010101" cx="521.055" cy="143.799" rx="1.498" ry="1.63"/>
		<ellipse fill="#010101" cx="534" cy="143.799" rx="1.498" ry="1.63"/>
		<ellipse fill="#010101" cx="521.055" cy="154.87" rx="1.498" ry="1.63"/>
		<ellipse fill="#010101" cx="534" cy="154.87" rx="1.498" ry="1.63"/>
		<ellipse fill="#010101" cx="521.055" cy="165.94" rx="1.498" ry="1.63"/>
		<ellipse fill="#010101" cx="534" cy="165.94" rx="1.498" ry="1.63"/>
		<ellipse fill="#010101" cx="521.055" cy="177.088" rx="1.498" ry="1.63"/>
		<ellipse fill="#010101" cx="534" cy="177.088" rx="1.498" ry="1.63"/>
		<ellipse fill="#010101" cx="545.638" cy="131.896" rx="1.498" ry="1.63"/>
		<ellipse fill="#010101" cx="558.583" cy="131.896" rx="1.498" ry="1.63"/>
		<ellipse fill="#010101" cx="545.638" cy="143.966" rx="1.498" ry="1.63"/>
		<ellipse fill="#010101" cx="558.583" cy="143.966" rx="1.498" ry="1.63"/>
		<ellipse fill="#010101" cx="558.583" cy="155.036" rx="1.498" ry="1.63"/>
		<ellipse fill="#010101" cx="545.638" cy="166.107" rx="1.498" ry="1.63"/>
		<ellipse fill="#010101" cx="558.583" cy="166.107" rx="1.498" ry="1.63"/>
		<ellipse fill="#010101" cx="545.638" cy="177.254" rx="1.498" ry="1.63"/>
		<ellipse fill="#010101" cx="558.583" cy="177.254" rx="1.498" ry="1.63"/>
		<ellipse fill="#010101" cx="569.805" cy="131.729" rx="1.498" ry="1.63"/>
		<ellipse fill="#010101" cx="582.75" cy="131.729" rx="1.498" ry="1.63"/>
		<ellipse fill="#010101" cx="569.805" cy="143.799" rx="1.498" ry="1.63"/>
		<ellipse fill="#010101" cx="582.75" cy="143.799" rx="1.498" ry="1.63"/>
		<ellipse fill="#010101" cx="569.805" cy="154.87" rx="1.498" ry="1.63"/>
		<ellipse fill="#010101" cx="582.75" cy="154.87" rx="1.498" ry="1.63"/>
		<ellipse fill="#010101" cx="569.805" cy="165.94" rx="1.498" ry="1.63"/>
		<ellipse fill="#010101" cx="582.75" cy="165.94" rx="1.498" ry="1.63"/>
		<ellipse fill="#010101" cx="569.805" cy="177.088" rx="1.498" ry="1.63"/>
		<ellipse fill="#010101" cx="582.75" cy="177.088" rx="1.498" ry="1.63"/>
		<ellipse fill="#010101" cx="594.388" cy="131.896" rx="1.498" ry="1.63"/>
		<ellipse fill="#010101" cx="607.333" cy="131.896" rx="1.498" ry="1.63"/>
		<ellipse fill="#010101" cx="594.388" cy="143.966" rx="1.498" ry="1.63"/>
		<ellipse fill="#010101" cx="607.333" cy="143.966" rx="1.498" ry="1.63"/>
		<ellipse fill="#010101" cx="594.388" cy="155.036" rx="1.498" ry="1.63"/>
		<ellipse fill="#010101" cx="607.333" cy="155.036" rx="1.498" ry="1.63"/>
		<ellipse fill="#010101" cx="594.388" cy="166.107" rx="1.498" ry="1.63"/>
		<ellipse fill="#010101" cx="607.333" cy="166.107" rx="1.498" ry="1.63"/>
		<ellipse fill="#010101" cx="594.388" cy="177.254" rx="1.498" ry="1.63"/>
		<ellipse fill="#010101" cx="607.333" cy="177.254" rx="1.498" ry="1.63"/>
		<ellipse fill="#010101" cx="618.555" cy="131.729" rx="1.498" ry="1.63"/>
		<ellipse fill="#010101" cx="631.5" cy="131.729" rx="1.498" ry="1.63"/>
		<ellipse fill="#010101" cx="618.555" cy="143.799" rx="1.498" ry="1.63"/>
		<ellipse fill="#010101" cx="631.5" cy="143.799" rx="1.498" ry="1.63"/>
		<ellipse fill="#010101" cx="618.555" cy="154.87" rx="1.498" ry="1.63"/>
		<ellipse fill="#010101" cx="631.5" cy="154.87" rx="1.498" ry="1.63"/>
		<ellipse fill="#010101" cx="618.555" cy="165.94" rx="1.498" ry="1.63"/>
		<ellipse fill="#010101" cx="631.5" cy="165.94" rx="1.498" ry="1.63"/>
		<ellipse fill="#010101" cx="618.555" cy="177.088" rx="1.498" ry="1.63"/>
		<ellipse fill="#010101" cx="631.5" cy="177.088" rx="1.498" ry="1.63"/>
		<circle fill="none" stroke="#76CBC7" stroke-width="2" stroke-miterlimit="10" cx="546.104" cy="155.171" r="3.68"/>
	</g>
</g>
</svg>
