<svg width="75" height="65" viewBox="0 0 75 65" fill="none" xmlns="http://www.w3.org/2000/svg">
<path d="M12.1988 26.5107L5 26.5107C2.23857 26.5107 -4.76837e-06 28.7493 -4.76837e-06 31.5107V58.6436V62.7805C-4.76837e-06 64.4944 2.01476 65.4143 3.30989 64.2918L8.9811 59.3766C9.52654 58.9038 10.2241 58.6436 10.9459 58.6436H38.3735C41.1349 58.6436 43.3735 56.405 43.3735 53.6436L43.3735 46.9598H16.1988C13.9897 46.9598 12.1988 45.1689 12.1988 42.9598V26.5107Z" fill="#67DDD1"/>
<path d="M15.8434 1.5H70C71.933 1.5 73.5 3.067 73.5 5V48.0145V56.3409C73.5 56.7706 72.9937 57.0002 72.6704 56.7169L62.3019 47.6302C61.4812 46.911 60.4272 46.5145 59.336 46.5145H15.8434C13.9104 46.5145 12.3434 44.9474 12.3434 43.0145V5C12.3434 3.06701 13.9104 1.5 15.8434 1.5Z" stroke="#3D42EC" stroke-width="3"/>
<path fill-rule="evenodd" clip-rule="evenodd" d="M30.2711 26.5107C32.0178 26.5107 33.4337 25.126 33.4337 23.4178C33.4337 21.7097 32.0178 20.3249 30.2711 20.3249C28.5244 20.3249 27.1084 21.7097 27.1084 23.4178C27.1084 25.126 28.5244 26.5107 30.2711 26.5107Z" fill="#3D42EC"/>
<path fill-rule="evenodd" clip-rule="evenodd" d="M42.0181 26.5107C43.7648 26.5107 45.1807 25.126 45.1807 23.4178C45.1807 21.7097 43.7648 20.3249 42.0181 20.3249C40.2714 20.3249 38.8554 21.7097 38.8554 23.4178C38.8554 25.126 40.2714 26.5107 42.0181 26.5107Z" fill="#3D42EC"/>
<path fill-rule="evenodd" clip-rule="evenodd" d="M53.7651 26.5107C55.5118 26.5107 56.9277 25.126 56.9277 23.4178C56.9277 21.7097 55.5118 20.3249 53.7651 20.3249C52.0184 20.3249 50.6024 21.7097 50.6024 23.4178C50.6024 25.126 52.0184 26.5107 53.7651 26.5107Z" fill="#3D42EC"/>
</svg>
