<svg width="75" height="65" viewBox="0 0 75 65" fill="none" xmlns="http://www.w3.org/2000/svg">
<mask id="path-1-inside-1" fill="white">
<path fill-rule="evenodd" clip-rule="evenodd" d="M65 3H45.8414C44.9353 3 44.1424 3.60917 43.9089 4.48468L42.4382 10H67V5C67 3.89543 66.1046 3 65 3ZM41.0102 3.71169L39.3333 10H24C24 7.79086 22.2091 6 20 6H14C11.7909 6 10 7.79086 10 10H5C2.23858 10 0 12.2386 0 15V60C0 62.7614 2.23858 65 5 65H70C72.7614 65 75 62.7614 75 60V15C75 12.2386 72.7614 10 70 10V5C70 2.23858 67.7614 0 65 0H45.8414C43.5761 0 41.5939 1.52292 41.0102 3.71169ZM10 13H5C3.89543 13 3 13.8954 3 15V60C3 61.1046 3.89543 62 5 62H70C71.1046 62 72 61.1046 72 60V15C72 13.8954 71.1046 13 70 13V15H67H41.1048H38L38.5333 13H24V18V21H21H13H10V18V13ZM21 13V18H13V13H21ZM21 10C21 9.44771 20.5523 9 20 9H14C13.4477 9 13 9.44772 13 10H21Z"/>
</mask>
<path d="M43.9089 4.48468L41.0102 3.71168V3.71169L43.9089 4.48468ZM42.4382 10L39.5395 9.22701L38.5333 13H42.4382V10ZM67 10V13H70V10H67ZM39.3333 10V13H41.6382L42.232 10.773L39.3333 10ZM41.0102 3.71169L38.1115 2.9387V2.9387L41.0102 3.71169ZM24 10H21V13H24V10ZM10 10V13H13V10H10ZM70 10H67V13H70V10ZM10 13H13V10H10V13ZM70 13V10H67V13H70ZM70 15V18H73V15H70ZM38 15L35.1013 14.227L34.0952 18H38V15ZM38.5333 13L41.432 13.773L42.4382 10H38.5333V13ZM24 13V10H21V13H24ZM24 21V24H27V21H24ZM10 21H7V24H10V21ZM21 18V21H24V18H21ZM21 13H24V10H21V13ZM13 18H10V21H13V18ZM13 13V10H10V13H13ZM21 10V13H24V10H21ZM13 10H10V13H13V10ZM45.8414 6H65V0H45.8414V6ZM46.8076 5.25767C46.6909 5.69541 46.2944 6 45.8414 6V0C43.5761 0 41.5939 1.52292 41.0102 3.71168L46.8076 5.25767ZM45.3369 10.773L46.8076 5.25766L41.0102 3.71169L39.5395 9.22701L45.3369 10.773ZM67 7H42.4382V13H67V7ZM64 5V10H70V5H64ZM65 6C64.4477 6 64 5.55229 64 5H70C70 2.23857 67.7614 0 65 0V6ZM42.232 10.773L43.9089 4.48468L38.1115 2.9387L36.4346 9.22701L42.232 10.773ZM24 13H39.3333V7H24V13ZM27 10C27 6.13401 23.866 3 20 3V9C20.5523 9 21 9.44772 21 10H27ZM20 3H14V9H20V3ZM14 3C10.134 3 7 6.13401 7 10H13C13 9.44771 13.4477 9 14 9V3ZM5 13H10V7H5V13ZM3 15C3 13.8954 3.89543 13 5 13V7C0.581724 7 -3 10.5817 -3 15H3ZM3 60V15H-3V60H3ZM5 62C3.89543 62 3 61.1046 3 60H-3C-3 64.4183 0.581722 68 5 68V62ZM70 62H5V68H70V62ZM72 60C72 61.1046 71.1046 62 70 62V68C74.4183 68 78 64.4183 78 60H72ZM72 15V60H78V15H72ZM70 13C71.1046 13 72 13.8954 72 15H78C78 10.5817 74.4183 7 70 7V13ZM67 5V10H73V5H67ZM65 3C66.1046 3 67 3.89543 67 5H73C73 0.581724 69.4183 -3 65 -3V3ZM45.8414 3H65V-3H45.8414V3ZM43.9089 4.48468C44.1424 3.60917 44.9353 3 45.8414 3V-3C42.217 -3 39.0454 -0.563326 38.1115 2.9387L43.9089 4.48468ZM10 10H5V16H10V10ZM5 10C2.23858 10 0 12.2386 0 15H6C6 15.5523 5.55228 16 5 16V10ZM0 15V60H6V15H0ZM0 60C0 62.7614 2.23857 65 5 65V59C5.55229 59 6 59.4477 6 60H0ZM5 65H70V59H5V65ZM70 65C72.7614 65 75 62.7614 75 60H69C69 59.4477 69.4477 59 70 59V65ZM75 60V15H69V60H75ZM75 15C75 12.2386 72.7614 10 70 10V16C69.4477 16 69 15.5523 69 15H75ZM67 13V15H73V13H67ZM70 12H67V18H70V12ZM67 12H41.1048V18H67V12ZM41.1048 12H38V18H41.1048V12ZM40.8987 15.773L41.432 13.773L35.6346 12.227L35.1013 14.227L40.8987 15.773ZM38.5333 10H24V16H38.5333V10ZM27 18V13H21V18H27ZM27 21V18H21V21H27ZM21 24H24V18H21V24ZM13 24H21V18H13V24ZM10 24H13V18H10V24ZM7 18V21H13V18H7ZM7 13V18H13V13H7ZM24 18V13H18V18H24ZM13 21H21V15H13V21ZM10 13V18H16V13H10ZM21 10H13V16H21V10ZM24 10C24 7.79086 22.2091 6 20 6V12C18.8954 12 18 11.1046 18 10H24ZM20 6H14V12H20V6ZM14 6C11.7909 6 10 7.79086 10 10H16C16 11.1046 15.1046 12 14 12V6ZM13 13H21V7H13V13Z" fill="#3D42EC" mask="url(#path-1-inside-1)"/>
<path d="M7 30C7 27.2386 9.23858 25 12 25H72V51H12C9.23858 51 7 48.7614 7 46V30Z" fill="#67DDD1"/>
<path d="M51.5 37.5C51.5 45.232 45.232 51.5 37.5 51.5C29.768 51.5 23.5 45.232 23.5 37.5C23.5 29.768 29.768 23.5 37.5 23.5C45.232 23.5 51.5 29.768 51.5 37.5Z" fill="white" stroke="#3D42EC" stroke-width="3"/>
<path fill-rule="evenodd" clip-rule="evenodd" d="M31.5 36C30.1193 36 29 34.8807 29 33.5C29 32.1193 30.1193 31 31.5 31C32.8807 31 34 32.1193 34 33.5C34 34.8807 32.8807 36 31.5 36Z" fill="#3D42EC"/>
<rect x="50" y="7" width="11" height="8" rx="1" fill="#67DDD1"/>
</svg>
