<?xml version="1.0" encoding="utf-8"?>
<!-- Generator: Adobe Illustrator 17.0.0, SVG Export Plug-In . SVG Version: 6.00 Build 0)  -->
<!DOCTYPE svg PUBLIC "-//W3C//DTD SVG 1.1//EN" "http://www.w3.org/Graphics/SVG/1.1/DTD/svg11.dtd">
<svg version="1.1" id="Layer_1" xmlns="http://www.w3.org/2000/svg" xmlns:xlink="http://www.w3.org/1999/xlink" x="0px" y="0px"
	 width="324.922px" height="51.667px" viewBox="0 0 324.922 51.667" enable-background="new 0 0 324.922 51.667"
	 xml:space="preserve">
<g>
	<path fill="#FFFFFF" d="M321.25,43.323c1.98,0,3.6,1.619,3.6,3.6c0,1.979-1.619,3.6-3.6,3.6c-1.979,0-3.6-1.62-3.6-3.6
		C317.651,44.943,319.271,43.323,321.25,43.323z"/>
	<path fill="#FFFFFF" d="M1.103,48.854c3.13-0.379,5.122-2.127,5.122-4.711V7.821c0-3.647-0.356-4.408-5.833-5.547V0.375h16.505
		c12.806,0,17.644,5.623,17.644,12.234c0,7.143-5.976,12.006-9.391,13.906v0.987l10.244,16.033c3.059,4.712,4.482,4.863,6.332,5.016
		l0.782,0.075l-0.285,2.432H31.908l-0.285-0.228c0,0-1.494-3.8-4.411-8.359l-8.822-13.906h-5.193l-0.712,0.761v14.817
		c0,2.203-0.356,3.875-0.356,3.875l6.403,0.684l-0.285,2.128L1.103,51.286V48.854z M18.462,25.602c4.268,0,9.177-3.648,9.177-11.019
		c0-5.775-3.059-11.245-11.81-11.245h-2.632l-0.712,0.76v21.504H18.462z"/>
	<path fill="#FFFFFF" d="M46.896,30.268c0-1.74,0.18-3.9,0.18-3.9h-3.96v-1.8c0,0,2.64-0.54,4.08-1.859l2.22-6.54l2.7,0.06
		l0.18,0.181c0,0-0.54,1.739-0.54,5.999v0.9h9.359l-0.42,2.88h-8.279l-0.6,0.6v15.239c0,3.48,1.02,5.4,4.2,5.4
		c2.7,0,5.4-1.26,5.4-1.26l0.78,1.14c0,0-3.42,3.72-8.64,3.72c-4.26,0-6.66-2.399-6.66-7.859V30.268z"/>
	<path fill="#FFFFFF" d="M77.555,35.247l2.04-0.3c0.06-1.26,0.06-4.74-0.24-6.42c-0.42-2.22-1.56-3.84-3.78-3.84
		c-4.08,0-6.36,5.76-6.36,5.76h-1.92l-1.02-4.5c0,0,4.38-3.359,11.1-3.359c5.64,0,7.14,2.279,7.14,8.579v13.8
		c0,1.92,0.24,2.819,1.62,2.819c1.62,0,3.3-1.199,3.3-1.199l0.78,1.26c0,0-2.82,3.18-6.359,3.18c-2.28,0-4.08-1.32-4.08-4.26v-1.44
		c0,0-3.18,5.7-9.359,5.7c-3.96,0-6.24-2.82-6.24-6.06C64.175,39.207,71.315,36.207,77.555,35.247z M79.594,44.007v-7.08l-1.86,0.3
		c-3.42,0.54-8.279,2.34-8.279,6.66c0,2.399,1.56,3.72,3.359,3.72C75.155,47.607,78.035,45.326,79.594,44.007z"/>
	<path fill="#FFFFFF" d="M92.374,48.746c2.7-0.3,3.72-1.739,3.72-3.899V30.268c0-2.58-0.06-4.08-1.8-4.08h-2.7v-1.62
		c5.88-1.2,9.6-2.819,9.6-2.819l0.18,0.18c0,0-0.54,1.979-0.6,7.319c2.16-3.239,6.359-6.659,11.399-6.659
		c4.14,0,6.84,2.279,6.84,8.1v14.159c0,1.8-0.3,3.18-0.3,3.18l5.1,0.601l-0.24,1.499l-12.899,0.36v-1.74
		c2.7-0.3,3.42-1.739,3.42-3.899v-12.84c0-4.56-1.74-5.76-4.14-5.76c-2.76,0-6.42,1.62-8.94,4.2v14.399c0,1.8-0.3,3.18-0.3,3.18
		l4.8,0.601l-0.24,1.499l-12.899,0.36V48.746z"/>
	<path fill="#FFFFFF" d="M141.993,22.588c2.16,0,4.26,0.359,4.26,0.359v-8.579c0-2.58-0.06-4.08-1.8-4.08h-2.52v-1.62
		c6.899-1.5,9.659-2.7,9.659-2.7l0.18,0.181c0,0-0.6,2.22-0.6,6.84v31.618c0,3.42,1.38,3.42,3.36,3.42h1.68l-0.18,1.62
		c-6.54,0.66-9.6,1.14-9.6,1.14l-0.18-0.18c0,0,0.24-1.68,0.24-3.18v-1.26c-1.62,2.399-4.08,4.859-8.58,4.859
		c-7.38,0-11.28-6.479-11.28-13.02C126.634,30.447,131.734,22.588,141.993,22.588z M146.253,44.906V28.047
		c0-2.76-2.399-3.18-4.319-3.18c-6.12,0-10.08,4.38-10.08,11.34c0,5.76,2.76,11.34,8.16,11.34
		C142.953,47.547,145.293,45.866,146.253,44.906z"/>
	<path fill="#FFFFFF" d="M159.033,48.746c2.7-0.3,3.72-1.739,3.72-3.899V30.268c0-2.58-0.06-4.08-1.8-4.08h-2.7v-1.62
		c5.88-1.2,9.72-2.819,9.72-2.819l0.18,0.18c0,0-0.54,1.979-0.72,7.619c1.8-3.359,4.979-6.959,8.1-6.959c1.44,0,3.24,0.72,3.24,2.76
		c0,1.8-1.26,2.939-2.82,2.939c-1.38,0-1.56-1.02-2.94-1.02c-2.04,0-4.02,1.979-5.34,3.479v14.1c0,1.8-0.3,3.24-0.3,3.24l5.7,0.54
		l-0.24,1.499l-13.8,0.36V48.746z"/>
	<path fill="#FFFFFF" d="M193.953,22.588c5.16,0,10.26,3.359,10.439,9.959c0,0-1.56,0.601-2.76,0.78l-14.939,2.16l-0.6,0.72
		c0.24,5.46,3,10.8,9.72,10.8c4.92,0,7.8-2.88,7.8-2.88l0.66,1.26c0,0-3.12,5.64-10.259,5.64c-8.52,0-12.72-6.66-12.72-13.68
		C181.293,29.188,186.693,22.588,193.953,22.588z M186.213,33.327l12.6-1.62c0,0-0.48-6.84-5.76-6.84
		C189.033,24.867,186.753,28.827,186.213,33.327z"/>
	<path fill="#FFFFFF" d="M210.033,28.287c-1.2-3.06-3.3-3.479-3.3-3.479v-1.5h2.76c3.78,0,5.88-0.24,5.88-0.24l0.24,0.24
		c0,0-1.14,2.58-0.06,5.52l4.68,12.659l0.96,3.24l5.58-13.26c0.3-0.779,0.6-1.8,0.359-2.76l-0.119-0.42
		c-1.141-3.06-3.301-3.479-3.301-3.479v-1.5h2.761c3.779,0,5.88-0.24,5.88-0.24l0.239,0.24c0,0-1.14,2.58-0.06,5.52l4.62,12.42
		c0.359,1.02,0.72,2.34,1.02,3.42l6.54-15.54c1.02-2.399-0.72-3.779-3-4.319v-1.5h8.04l0.3,0.96c0,0-1.021,0.479-2.16,3.18
		l-10.079,23.639l-2.221-0.779l-6.899-17.64l-7.86,18.419l-2.22-0.779L210.033,28.287z"/>
	<path fill="#FFFFFF" d="M251.853,31.558l3.67,9.929l0.96,3.24l5.58-13.26c0.3-0.779,0.6-1.8,0.359-2.76l-0.119-0.42
		c-1.141-3.06-3.301-3.479-3.301-3.479v-1.5h2.761c3.779,0,5.88-0.24,5.88-0.24l0.239,0.24c0,0-1.14,2.58-0.06,5.52l4.62,12.42
		c0.359,1.02,0.72,2.34,1.02,3.42l6.54-15.54c1.02-2.399-0.72-3.779-3-4.319v-1.5h8.04l0.3,0.96c0,0-1.021,0.479-2.16,3.18
		l-10.079,23.639l-2.221-0.779l-6.899-17.64l-7.86,18.419l-2.22-0.779l-4.951-11.257"/>
	<path fill="#FFFFFF" d="M287.296,31.558l3.67,9.929l0.96,3.24l5.58-13.26c0.3-0.779,0.6-1.8,0.359-2.76l-0.119-0.42
		c-1.141-3.06-3.301-3.479-3.301-3.479v-1.5h2.761c3.779,0,5.88-0.24,5.88-0.24l0.239,0.24c0,0-1.14,2.58-0.06,5.52l4.62,12.42
		c0.359,1.02,0.72,2.34,1.02,3.42l6.54-15.54c1.02-2.399-0.72-3.779-3-4.319v-1.5h8.04l0.3,0.96c0,0-1.021,0.479-2.16,3.18
		l-10.079,23.639l-2.221-0.779l-6.899-17.64l-7.86,18.419l-2.22-0.779l-4.951-11.257"/>
</g>
</svg>
