<?xml version="1.0" encoding="utf-8"?>
<!-- Generator: Adobe Illustrator 17.0.0, SVG Export Plug-In . SVG Version: 6.00 Build 0)  -->
<!DOCTYPE svg PUBLIC "-//W3C//DTD SVG 1.1//EN" "http://www.w3.org/Graphics/SVG/1.1/DTD/svg11.dtd">
<svg version="1.1" id="Layer_1" xmlns="http://www.w3.org/2000/svg" xmlns:xlink="http://www.w3.org/1999/xlink" x="0px" y="0px"
	 width="8742.199px" height="6080.419px" viewBox="0 0 8742.199 6080.419" enable-background="new 0 0 8742.199 6080.419"
	 xml:space="preserve">
<g>
	<path fill="#FFFFFF" d="M60.42,5990.995V5704.86c132.915-23.751,238.643-84.944,317.185-183.3
		c78.542-98.37,117.81-222.019,117.81-371.093V876.295c0-220.476-26.24-368.009-78.542-442.627
		C364.485,359.196,225.523,289.205,0,223.546V0h1401.661c511.46,0,889.064,134.122,1132.796,402.38
		c243.657,268.244,365.529,614.044,365.529,1037.238c0,369.698-83.649,697.46-250.737,983.61
		c-167.174,286.135-349.466,503.805-546.764,652.748v116.246l869.99,1886.711c80.527,172.973,155.007,304.025,223.55,393.435
		c68.433,89.424,121.773,143.082,160.095,160.958c38.236,17.891,89.585,29.906,154.06,35.767l66.467,8.945l-24.175,286.135h-876.036
		l-24.163-26.821c-84.583-298.018-209.478-625.927-374.575-983.595l-749.163-1636.358h-441.042l-60.414,89.424v1743.644
		l-30.21,456.038l543.747,80.479l-24.169,250.368L60.42,5990.995z M1027.079,2968.676h507.496
		c201.354,0,381.562-114.718,540.723-344.258c159.063-229.422,238.643-546.858,238.643-952.308
		c0-381.42-80.613-697.46-241.667-947.828c-161.14-250.368-414.888-375.559-761.244-375.559h-223.538l-60.414,89.424V2968.676z"/>
	<path fill="#FFFFFF" d="M4633.881,5964.173l-863.943-3281.647c-36.257-137.06-81.572-248.825-135.944-335.312
		c-54.373-86.34-99.688-138.602-135.932-156.478l-60.42-26.822v-223.546h277.911l592.079-35.767l24.175,35.767
		c-8.124,29.891-16.15,68.596-24.175,116.246c-8.112,47.782-17.17,147.533-27.187,299.545
		c-10.09,152.013,5.002,287.677,45.315,406.846l471.251,1886.726l96.664,482.859l561.869-1976.135
		c44.27-166.833,56.364-304.025,36.257-411.326l-12.094-62.603c-32.275-137.06-76.557-248.825-132.909-335.312
		c-56.45-86.34-104.788-138.602-145.002-156.478l-54.373-26.822v-223.546h277.911l592.079-35.767l24.175,35.767
		c-8.124,29.891-16.149,68.596-24.175,116.246c-8.111,47.782-17.182,147.533-27.186,299.545
		c-10.103,152.013,5.002,287.677,45.314,406.846l465.205,1850.959c20.107,95.417,54.373,265.321,102.711,509.681l658.533-2315.927
		c48.338-166.819,42.292-305.421-18.128-415.791c-60.407-110.238-155.093-186.237-283.958-228.012v-223.546h809.583l30.209,143.067
		c-68.531,47.782-141.032,205.656-217.503,473.914L6567.201,6080.419l-223.538-116.246l-694.79-2628.884l-791.454,2745.13
		L4633.881,5964.173z"/>
	<path fill="#FFFFFF" d="M8122.934,5914.996c-70.51-104.23-105.722-230.949-105.722-380.024
		c0-148.943,35.212-275.662,105.722-380.024c70.424-104.23,156.039-156.493,256.771-156.493
		c100.634,0,186.249,52.262,256.771,156.493c70.425,104.363,105.723,231.082,105.723,380.024
		c0,149.075-35.298,275.793-105.723,380.024c-70.522,104.231-156.138,156.478-256.771,156.478
		C8278.973,6071.474,8193.358,6019.227,8122.934,5914.996z"/>
</g>
</svg>
